<svg width="62" height="33" viewBox="0 0 62 33" fill="none" xmlns="http://www.w3.org/2000/svg">
<rect x="0.731445" y="0.718628" width="60.3731" height="32.1865" rx="5.09327" fill="#50c9f4"/>
<path d="M17.7455 22.9902C13.8059 22.9902 11.3636 20.5658 11.3636 16.84C11.3636 13.1143 13.8059 10.6899 17.7455 10.6899C21.4534 10.6899 23.8421 12.5439 23.8421 15.5744V15.8418H20.8651V15.5744C20.8651 14.0056 19.9738 13.2569 17.799 13.2569C15.1785 13.2569 14.198 14.1839 14.198 16.84C14.198 19.4962 15.1785 20.4231 17.799 20.4231C19.9738 20.4231 20.8651 19.6744 20.8651 18.1057V17.8383H23.8421V18.1057C23.8421 21.1362 21.4712 22.9902 17.7455 22.9902ZM31.1153 22.9902C27.1757 22.9902 24.7335 20.5658 24.7335 16.84C24.7335 13.1143 27.1757 10.6899 31.1153 10.6899C34.8232 10.6899 37.212 12.5439 37.212 15.5744V15.8418H34.2349V15.5744C34.2349 14.0056 33.3436 13.2569 31.1688 13.2569C28.5483 13.2569 27.5679 14.1839 27.5679 16.84C27.5679 19.4962 28.5483 20.4231 31.1688 20.4231C33.3436 20.4231 34.2349 19.6744 34.2349 18.1057V17.8383H37.212V18.1057C37.212 21.1362 34.841 22.9902 31.1153 22.9902ZM41.0446 22.8119H38.3707V10.8682H41.0446V15.61H47.2839V10.8682H49.9579V22.8119H47.2839V18.0166H41.0446V22.8119Z" fill="#1E1E1E"/>
</svg>
