<svg width="18" height="17" viewBox="0 0 18 17" fill="none" xmlns="http://www.w3.org/2000/svg">
<path d="M10.3347 2.61432V1.30639C10.3347 0.86386 10.6635 0.5 11.0635 0.5H12.2454C12.6453 0.5 12.9742 0.86386 12.9742 1.30639V2.61432" fill="#F5F5F5"/>
<path d="M10.3347 2.61432V1.30639C10.3347 0.86386 10.6635 0.5 11.0635 0.5H12.2454C12.6453 0.5 12.9742 0.86386 12.9742 1.30639V2.61432" stroke="black" stroke-miterlimit="10" stroke-linecap="round" stroke-linejoin="round"/>
<path d="M11.6588 5.05319C12.4834 5.05319 13.1518 4.31351 13.1518 3.40107C13.1518 2.48863 12.4834 1.74895 11.6588 1.74895C10.8342 1.74895 10.1658 2.48863 10.1658 3.40107C10.1658 4.31351 10.8342 5.05319 11.6588 5.05319Z" fill="#F5F5F5" stroke="black" stroke-miterlimit="10" stroke-linecap="round" stroke-linejoin="round"/>
<path d="M3.04722 8.6918C3.8718 8.6918 4.54025 7.95212 4.54025 7.03968C4.54025 6.12724 3.8718 5.38756 3.04722 5.38756C2.22265 5.38756 1.5542 6.12724 1.5542 7.03968C1.5542 7.95212 2.22265 8.6918 3.04722 8.6918Z" fill="#F5F5F5" stroke="black" stroke-miterlimit="10" stroke-linecap="round" stroke-linejoin="round"/>
<path d="M10.3614 3.77475H12.9387C13.0186 3.77475 13.0631 3.86326 13.0275 3.94193L12.7343 4.54181L12.1566 4.95484H11.1524L10.5036 4.4533L10.2725 3.94193C10.237 3.86326 10.2903 3.77475 10.3614 3.77475Z" fill="#F5F5F5"/>
<path d="M8.15739 14.1693C7.95298 14.1693 7.74858 14.0907 7.58862 13.953L2.66519 9.75383C2.2475 9.38997 1.63429 9.47848 1.30547 9.95051L1.19883 10.098C0.878893 10.5602 0.94999 11.2388 1.37657 11.6026L6.77989 16.205C7.00207 16.4017 7.27757 16.5 7.56195 16.5H15.9424C16.2357 16.5 16.4934 16.3722 16.689 16.1558C16.8756 15.9493 17 15.6543 17 15.3297C17 14.6905 16.529 14.1595 15.9424 14.1595H8.15739V14.1693Z" fill="#F5F5F5" stroke="black" stroke-miterlimit="10" stroke-linecap="round" stroke-linejoin="round"/>
<path d="M7.70409 14.0022C7.78407 14.071 7.89072 14.1103 7.99736 14.1103L10.5924 14.1694C10.7435 14.1694 10.8945 14.13 11.0278 14.0612L12.4942 13.2941C12.7164 13.1761 12.9741 13.1466 13.2141 13.2253L16.0935 14.0808C16.3779 14.1694 16.68 14.0317 16.8311 13.7465C17.0355 13.363 16.8844 12.8713 16.5112 12.7041L13.0008 11.0913C12.7164 10.9634 12.4053 10.9634 12.121 11.0815L10.1747 11.9174C10.1125 11.9469 10.0414 11.9567 9.97917 11.9567H8.41505C8.2462 11.9567 8.07734 11.8977 7.94404 11.7797L5.26015 9.49817C5.10018 9.3605 4.90467 9.29166 4.70915 9.29166C4.44254 9.29166 4.17593 9.42933 3.99819 9.67518C3.69603 10.1079 3.76712 10.7274 4.15816 11.0618L7.70409 14.0022Z" fill="#F5F5F5" stroke="black" stroke-miterlimit="10" stroke-linecap="round" stroke-linejoin="round"/>
<path d="M6.17554 10.2652L9.41931 6.62665C9.66815 6.34146 10.0147 6.18411 10.3791 6.18411H13.0097C13.3652 6.18411 13.7118 6.34146 13.9695 6.62665L16.2268 9.16383C16.4223 9.38018 16.4579 9.72437 16.3068 9.98006L15.107 12.0452" fill="#F5F5F5"/>
<path d="M6.17554 10.2652L9.41931 6.62665C9.66815 6.34146 10.0147 6.18411 10.3791 6.18411H13.0097C13.3652 6.18411 13.7118 6.34146 13.9695 6.62665L16.2268 9.16383C16.4223 9.38018 16.4579 9.72437 16.3068 9.98006L15.107 12.0452" stroke="black" stroke-miterlimit="10" stroke-linecap="round" stroke-linejoin="round"/>
<path d="M13.2673 8.53447L13.9784 9.3802C14.1651 9.59655 14.1829 9.93091 14.0318 10.1768L13.3651 11.2487" fill="#F5F5F5"/>
<path d="M13.2673 8.53447L13.9784 9.3802C14.1651 9.59655 14.1829 9.93091 14.0318 10.1768L13.3651 11.2487" stroke="black" stroke-miterlimit="10" stroke-linecap="round" stroke-linejoin="round"/>
<path d="M7.48193 11.3765L9.66815 8.84915C9.76591 8.74098 9.93476 8.80982 9.93476 8.96717V11.9567" fill="#F5F5F5"/>
<path d="M7.48193 11.3765L9.66815 8.84915C9.76591 8.74098 9.93476 8.80982 9.93476 8.96717V11.9567" stroke="black" stroke-miterlimit="10" stroke-linecap="round" stroke-linejoin="round"/>
</svg>
