<svg width="48" height="48" viewBox="0 0 48 48" fill="none" xmlns="http://www.w3.org/2000/svg">
<path d="M17.25 8.715V12.75H16.5C16.1025 12.7512 15.7217 12.9096 15.4407 13.1906C15.1596 13.4717 15.0012 13.8525 15 14.25V10.5C15.5458 9.68519 16.3324 9.06115 17.25 8.715Z" fill="#40240F"/>
<path d="M33 10.5V14.25C32.9988 13.8525 32.8404 13.4717 32.5593 13.1906C32.2783 12.9096 31.8975 12.7512 31.5 12.75H30.75V8.715C31.6676 9.06115 32.4542 9.68519 33 10.5Z" fill="#40240F"/>
<path d="M39.8925 38.9625L40.5 41.25H38.25H33.75V39H39.75L39.8925 38.9625Z" fill="#13969D"/>
<path d="M38.25 41.25V47.25H33.75V43.5V41.25H38.25Z" fill="#F2C4B2"/>
<path d="M37.5 30L29.895 27.825L24 32.25L18.105 27.825L10.5 30L8.09998 39H14.25V47.25H33.75V39H39.75L39.8925 38.9625L37.5 30ZM30 45H27.75C27.3525 44.9988 26.9717 44.8404 26.6906 44.5594C26.4096 44.2783 26.2512 43.8975 26.25 43.5V39H31.5V43.5C31.4988 43.8975 31.3404 44.2783 31.0593 44.5594C30.7783 44.8404 30.3974 44.9988 30 45Z" fill="#34C1AD"/>
<path d="M33 14.25V15.2925C33.0006 15.6638 32.9091 16.0294 32.7337 16.3566C32.5583 16.6838 32.3045 16.9625 31.995 17.1675L30.75 18C28.6292 17.0349 26.33 16.524 24 16.5C21.67 16.524 19.3708 17.0349 17.25 18L16.005 17.1675C15.6955 16.9625 15.4417 16.6838 15.2663 16.3566C15.0909 16.0294 14.9994 15.6638 15 15.2925V14.25C15.0012 13.8525 15.1596 13.4717 15.4407 13.1906C15.7217 12.9096 16.1025 12.7512 16.5 12.75H17.25V8.715C19.3832 7.81829 21.688 7.40343 24 7.5C26.312 7.40343 28.6168 7.81829 30.75 8.715V12.75H31.5C31.8975 12.7512 32.2783 12.9096 32.5594 13.1906C32.8404 13.4717 32.9988 13.8525 33 14.25Z" fill="#F2C4B2"/>
<path d="M30.75 8.715C28.6168 7.81829 26.312 7.40343 24 7.5C21.688 7.40343 19.3832 7.81829 17.25 8.715C16.3324 9.06116 15.5458 9.6852 15 10.5V6.75C15 5.1587 15.6321 3.63258 16.7574 2.50736C17.8826 1.38214 19.4087 0.75 21 0.75H27C28.5913 0.75 30.1174 1.38214 31.2426 2.50736C32.3679 3.63258 33 5.1587 33 6.75V10.5C32.4542 9.6852 31.6676 9.06116 30.75 8.715Z" fill="#34C1AD"/>
<path d="M17.25 10.215V8.715C16.3324 9.06115 15.5458 9.68519 15 10.5V12C15.5458 11.1852 16.3324 10.5612 17.25 10.215Z" fill="#241408"/>
<path d="M30.75 8.715V10.215C31.6676 10.5612 32.4542 11.1852 33 12V10.5C32.4542 9.68519 31.6676 9.06115 30.75 8.715Z" fill="#241408"/>
<path d="M24 9C26.312 8.90343 28.6168 9.31829 30.75 10.215V8.715C28.6168 7.81829 26.312 7.40343 24 7.5C21.688 7.40343 19.3832 7.81829 17.25 8.715V10.215C19.3832 9.31829 21.688 8.90343 24 9Z" fill="#F2A283"/>
<path d="M31.5 39V43.5C31.4988 43.8975 31.3404 44.2783 31.0593 44.5593C30.7783 44.8404 30.3975 44.9988 30 45H27.75C27.3525 44.9988 26.9717 44.8404 26.6907 44.5593C26.4096 44.2783 26.2512 43.8975 26.25 43.5V39H31.5Z" fill="#13969D"/>
<path d="M29.895 27.825L24 32.25L18.105 27.825L21 27L24 29.25L27 27L29.895 27.825Z" fill="#13969D"/>
<path d="M27 22.56C26.0651 23.0141 25.0393 23.25 24 23.25C22.9607 23.25 21.9349 23.0141 21 22.56C20.0717 22.1316 19.2523 21.499 18.6029 20.7093C17.9536 19.9197 17.4911 18.9935 17.25 18C19.3708 17.0349 21.67 16.524 24 16.5C26.33 16.524 28.6292 17.0349 30.75 18C30.5089 18.9935 30.0464 19.9197 29.3971 20.7093C28.7477 21.499 27.9283 22.1316 27 22.56Z" fill="#13969D"/>
<path d="M27 22.56V27L24 29.25L21 27V22.56C21.9349 23.0141 22.9607 23.25 24 23.25C25.0393 23.25 26.0651 23.0141 27 22.56Z" fill="#F2B59D"/>
<path d="M9.75 41.25H14.25V47.25H9.75V41.25Z" fill="#F2C4B2"/>
<path d="M14.25 39V41.25H9.75H7.5L8.1 39H14.25Z" fill="#13969D"/>
<path d="M38.25 41.25H33.75V47.25H36V44.25C36 43.8522 36.158 43.4706 36.4393 43.1893C36.7206 42.908 37.1022 42.75 37.5 42.75H38.25V41.25Z" fill="#F2A283"/>
<path d="M9.75 41.25H14.25V47.25H12V44.25C12 43.8522 11.842 43.4706 11.5607 43.1893C11.2794 42.908 10.8978 42.75 10.5 42.75H9.75V41.25Z" fill="#F2A283"/>
<path d="M27 22.56C26.0651 23.0141 25.0393 23.25 24 23.25C22.9607 23.25 21.9349 23.0141 21 22.56V27L21.5295 27.3967L27 23.7502V22.56Z" fill="#F2A283"/>
<path d="M30.75 13.5V16.5L31.4205 16.1647C31.6697 16.0402 31.8794 15.8487 32.0259 15.6117C32.1724 15.3747 32.25 15.1016 32.25 14.823V14.25C32.25 14.0511 32.171 13.8603 32.0303 13.7197C31.8897 13.579 31.6989 13.5 31.5 13.5H30.75Z" fill="#D9896D"/>
<path d="M17.25 13.5V16.5L16.5795 16.1647C16.3303 16.0402 16.1206 15.8487 15.9741 15.6117C15.8276 15.3747 15.75 15.1016 15.75 14.823V14.25C15.75 14.0511 15.829 13.8603 15.9697 13.7197C16.1103 13.579 16.3011 13.5 16.5 13.5H17.25Z" fill="#D9896D"/>
<path d="M24 16.5C24.2071 16.5 24.375 16.1642 24.375 15.75C24.375 15.3358 24.2071 15 24 15C23.7929 15 23.625 15.3358 23.625 15.75C23.625 16.1642 23.7929 16.5 24 16.5Z" fill="#D9896D"/>
<path d="M25.7999 10.4902C25.7896 10.4934 25.7791 10.496 25.7684 10.4977C25.6184 10.5247 25.5037 10.2862 25.5037 10.1227C25.5037 10.077 25.5209 8.99774 27.0037 8.99774C28.4864 8.99774 28.5037 10.077 28.5037 10.1227C28.5058 10.1886 28.4915 10.2539 28.4621 10.3129C28.4326 10.3718 28.3889 10.4225 28.3349 10.4602C28.2262 10.527 28.1197 10.4647 28.0349 10.3627C27.9937 10.3117 27.9599 10.2487 27.9172 10.2007C27.8732 10.1574 27.8226 10.1214 27.7672 10.0942C27.6358 10.0174 27.4968 9.95427 27.3524 9.90599C27.1609 9.85114 26.9587 9.84484 26.7641 9.88766C26.5696 9.93047 26.3887 10.0211 26.2379 10.1512C26.1129 10.289 25.9646 10.4038 25.7999 10.4902Z" fill="#43251A"/>
<path d="M22.2037 10.4902C22.214 10.4934 22.2246 10.496 22.2352 10.4977C22.3852 10.5247 22.5 10.2862 22.5 10.1227C22.5 10.077 22.4827 8.99774 21 8.99774C19.5172 8.99774 19.5 10.077 19.5 10.1227C19.4978 10.1886 19.5121 10.2539 19.5416 10.3129C19.571 10.3718 19.6147 10.4225 19.6687 10.4602C19.7775 10.527 19.884 10.4647 19.9687 10.3627C20.01 10.3117 20.0437 10.2487 20.0865 10.2007C20.1304 10.1574 20.181 10.1214 20.2365 10.0942C20.3679 10.0174 20.5068 9.95427 20.6512 9.90599C20.8427 9.85114 21.0449 9.84484 21.2395 9.88766C21.4341 9.93047 21.6149 10.0211 21.7657 10.1512C21.8907 10.289 22.039 10.4038 22.2037 10.4902Z" fill="#43251A"/>
<path d="M27.375 15.375C27.7892 15.375 28.125 14.7034 28.125 13.875C28.125 13.0466 27.7892 12.375 27.375 12.375C26.9608 12.375 26.625 13.0466 26.625 13.875C26.625 14.7034 26.9608 15.375 27.375 15.375Z" fill="#43251A"/>
<path d="M20.625 15.375C21.0392 15.375 21.375 14.7034 21.375 13.875C21.375 13.0466 21.0392 12.375 20.625 12.375C20.2108 12.375 19.875 13.0466 19.875 13.875C19.875 14.7034 20.2108 15.375 20.625 15.375Z" fill="#43251A"/>
<path d="M29.25 5.25H21C20.4033 5.25 19.831 5.01295 19.409 4.59099C18.9871 4.16903 18.75 3.59674 18.75 3C18.75 2.40326 18.9871 1.83097 19.409 1.40901C19.831 0.987053 20.4033 0.75 21 0.75C19.4087 0.75 17.8826 1.38214 16.7574 2.50736C15.6321 3.63258 15 5.1587 15 6.75V10.5C15.5458 9.6852 16.3324 9.06116 17.25 8.715C19.3832 7.81829 21.688 7.40343 24 7.5C26.312 7.40343 28.6168 7.81829 30.75 8.715C31.6676 9.06116 32.4542 9.6852 33 10.5V9C33 8.00544 32.6049 7.05161 31.9016 6.34835C31.1984 5.64509 30.2446 5.25 29.25 5.25Z" fill="#21ABAB"/>
<path d="M30.75 7.215C28.6168 6.31829 26.312 5.90343 24 6C21.688 5.90343 19.3832 6.31829 17.25 7.215C16.3324 7.56116 15.5458 8.1852 15 9V10.5C15.5458 9.6852 16.3324 9.06116 17.25 8.715C19.3832 7.81829 21.688 7.40343 24 7.5C26.312 7.40343 28.6168 7.81829 30.75 8.715C31.6676 9.06116 32.4542 9.6852 33 10.5V9C32.4542 8.1852 31.6676 7.56116 30.75 7.215Z" fill="#13969D"/>
<path d="M35.25 40.5V39H33.75V41.25H38.25H40.5L40.3005 40.5H35.25Z" fill="#107C82"/>
<path d="M12.75 40.5H7.70025L7.5 41.25H9.75H14.25V39H12.75V40.5Z" fill="#107C82"/>
<path d="M33.75 39V33.75C34.1478 33.75 34.5294 33.908 34.8107 34.1893C35.092 34.4706 35.25 34.8522 35.25 35.25V39H33.75Z" fill="#21ABAB"/>
<path d="M14.25 39V33.75C13.8522 33.75 13.4706 33.908 13.1893 34.1893C12.908 34.4706 12.75 34.8522 12.75 35.25V39H14.25Z" fill="#21ABAB"/>
<path d="M21.8355 27.9427L22.0605 27.7927L21 27L18.105 27.825L24 32.25L24.789 31.6575L21.7717 29.1427C21.6821 29.0681 21.6111 28.9735 21.5645 28.8666C21.5178 28.7596 21.4967 28.6433 21.5029 28.5268C21.5091 28.4103 21.5424 28.2968 21.6001 28.1954C21.6578 28.094 21.7384 28.0075 21.8355 27.9427Z" fill="#107C82"/>
<path d="M30 45H27.75C27.3636 44.9988 26.9927 44.8485 26.7143 44.5805C26.436 44.3126 26.2718 43.9475 26.256 43.5615C19.2 42.207 14.25 39 14.25 35.25V47.25H33.75V44.25C32.9295 44.25 32.1232 44.2237 31.329 44.1787C31.2043 44.4245 31.0143 44.6312 30.7799 44.7761C30.5454 44.9209 30.2756 44.9984 30 45Z" fill="#21ABAB"/>
<path d="M26.25 39H31.5V40.5H26.25V39Z" fill="#107C82"/>
<path d="M19.551 17.1533C18.762 17.3718 17.9924 17.655 17.25 18C17.4911 18.9935 17.9536 19.9197 18.6029 20.7094C19.2523 21.499 20.0717 22.1316 21 22.56C21.9349 23.0141 22.9607 23.25 24 23.25C25.0393 23.25 26.0651 23.0141 27 22.56C27.0518 22.5353 27.1005 22.5038 27.15 22.4783C23.1705 22.2705 19.9763 20.0183 19.551 17.1533Z" fill="#107C82"/>
<path d="M16.875 27.75V42.4792L14.8815 43.1438C14.8067 43.1687 14.7417 43.2165 14.6957 43.2804C14.6496 43.3444 14.6249 43.4212 14.625 43.5V47.25H15.375V43.77L17.25 43.1453L19.125 43.77V47.25H19.875V43.5C19.8751 43.4212 19.8504 43.3444 19.8043 43.2804C19.7583 43.2165 19.6933 43.1687 19.6185 43.1438L17.625 42.48V27.75C17.625 27.2527 17.8225 26.7758 18.1742 26.4242C18.5258 26.0725 19.0027 25.875 19.5 25.875H21V25.125H19.5C18.8038 25.125 18.1361 25.4016 17.6438 25.8938C17.1516 26.3861 16.875 27.0538 16.875 27.75Z" fill="#E3E3E3"/>
<path d="M28.5 25.125H27V25.875H28.5C28.9973 25.875 29.4742 26.0725 29.8258 26.4242C30.1775 26.7758 30.375 27.2527 30.375 27.75V39H31.125V27.75C31.125 27.0538 30.8484 26.3861 30.3562 25.8938C29.8639 25.4016 29.1962 25.125 28.5 25.125Z" fill="#E3E3E3"/>
</svg>
