<svg width="30" height="30" viewBox="0 0 30 30" fill="none" xmlns="http://www.w3.org/2000/svg">
<path d="M27.1781 28.125V15.9187C27.1781 15.4125 26.7656 14.9906 26.25 14.9906H18.75V11.25H20.625V12.3656C20.625 12.7875 20.9625 13.125 21.375 13.125H24.5531C24.975 13.125 25.3125 12.7875 25.3125 12.375V4.50937C25.3125 4.0875 24.975 3.75 24.5625 3.75H21.3844C20.9625 3.75 20.625 4.0875 20.625 4.50937V5.625H18.75V2.7375C18.75 2.25938 18.3656 1.875 17.8875 1.875H3.675C3.19688 1.875 2.8125 2.25938 2.8125 2.7375V28.1062H4.66873V23.4656C4.66873 22.9313 5.09998 22.5 5.63436 22.5H15.9094C16.4437 22.5 16.875 22.9313 16.875 23.4656V28.125H15.9469V23.7656C15.9469 23.5875 15.8062 23.4375 15.6187 23.4375H13.4812C13.3031 23.4375 13.1531 23.5781 13.1531 23.7656V28.125H12.1875H10.3125H27.1781ZM18.75 25.3219V22.5H20.1562C20.4188 22.5 20.625 22.7156 20.625 22.9688V24.8438C20.625 25.1063 20.4188 25.3125 20.1562 25.3219H18.75ZM18.75 20.6344V17.8125H20.1562C20.4188 17.8125 20.625 18.0281 20.625 18.2812V20.1562C20.625 20.4188 20.4188 20.625 20.1562 20.6344H18.75ZM20.625 10.3125H18.75V6.5625H20.625V10.3125ZM25.3125 18.2812V20.1562C25.3125 20.4188 25.1063 20.625 24.8438 20.6344H22.95C22.6875 20.6344 22.4812 20.4188 22.4812 20.1656V18.2812C22.4812 18.0187 22.6969 17.8125 22.95 17.8125H24.8438C25.1063 17.8125 25.3125 18.0281 25.3125 18.2812ZM25.3125 22.9688V24.8438C25.3125 25.1063 25.1063 25.3125 24.8438 25.3219H22.95C22.6875 25.3219 22.4812 25.1063 22.4812 24.8531V22.9688C22.4812 22.7062 22.6969 22.5 22.95 22.5H24.8438C25.1063 22.5 25.3125 22.7156 25.3125 22.9688ZM12.1969 4.21875V6.09375C12.1969 6.35625 11.9906 6.5625 11.7281 6.5625H9.83437C9.57187 6.5625 9.36562 6.34688 9.36562 6.09375V4.21875C9.36562 3.95625 9.58125 3.75 9.83437 3.75H11.7281C11.9906 3.75 12.1969 3.96563 12.1969 4.21875ZM12.1969 10.7812C12.1969 11.0437 11.9906 11.25 11.7281 11.25H9.83437C9.57187 11.25 9.36562 11.0344 9.36562 10.7812V8.90625C9.36562 8.64375 9.58125 8.4375 9.83437 8.4375H11.7281C11.9906 8.4375 12.1969 8.65312 12.1969 8.90625V10.7812ZM12.1969 13.5938V15.4688C12.1969 15.7312 11.9906 15.9375 11.7281 15.9469H9.83437C9.57187 15.9469 9.36562 15.7312 9.36562 15.4781V13.5938C9.36562 13.3313 9.58125 13.125 9.83437 13.125H11.7281C11.9906 13.125 12.1969 13.3406 12.1969 13.5938ZM12.1969 18.2812V20.1562C12.1969 20.4188 11.9906 20.625 11.7281 20.6344H9.83437C9.57187 20.6344 9.36562 20.4188 9.36562 20.1656V18.2812C9.36562 18.0187 9.58125 17.8125 9.83437 17.8125H11.7281C11.9906 17.8125 12.1969 18.0281 12.1969 18.2812ZM16.8938 20.1562C16.8938 20.4188 16.6781 20.625 16.425 20.6344H14.5312C14.2688 20.6344 14.0625 20.4188 14.0625 20.1656V18.2812C14.0625 18.0187 14.2781 17.8125 14.5312 17.8125H16.425C16.6875 17.8125 16.8938 18.0281 16.8938 18.2812V20.1562ZM16.8938 13.5938V15.4688C16.8938 15.7312 16.6781 15.9375 16.425 15.9469H14.5312C14.2688 15.9469 14.0625 15.7312 14.0625 15.4781V13.5938C14.0625 13.3313 14.2781 13.125 14.5312 13.125H16.425C16.6875 13.125 16.8938 13.3406 16.8938 13.5938ZM16.8938 10.7812C16.8938 11.0437 16.6781 11.25 16.425 11.25H14.5312C14.2688 11.25 14.0625 11.0344 14.0625 10.7812V8.90625C14.0625 8.64375 14.2688 8.4375 14.5312 8.4375H16.425C16.6875 8.4375 16.8938 8.65312 16.8938 8.90625V10.7812ZM16.8938 4.21875V6.09375C16.8938 6.35625 16.6781 6.5625 16.425 6.5625H14.5312C14.2688 6.5625 14.0625 6.35625 14.0625 6.09375V4.21875C14.0625 3.95625 14.2688 3.75 14.5312 3.75H16.425C16.6875 3.75 16.8938 3.96563 16.8938 4.21875ZM7.50937 20.1562C7.50937 20.4188 7.30312 20.625 7.04062 20.6344H5.14687C4.88437 20.6344 4.67812 20.4188 4.67812 20.1656V18.2812C4.67812 18.0187 4.89374 17.8125 5.14687 17.8125H7.04062C7.30312 17.8125 7.50937 18.0281 7.50937 18.2812V20.1562ZM7.50937 13.5938V15.4688C7.50937 15.7312 7.30312 15.9375 7.04062 15.9469H5.14687C4.88437 15.9469 4.67812 15.7312 4.67812 15.4781V13.5938C4.67812 13.3313 4.89374 13.125 5.14687 13.125H7.04062C7.30312 13.125 7.50937 13.3406 7.50937 13.5938ZM7.50937 10.7812C7.50937 11.0437 7.30312 11.25 7.04062 11.25H5.14687C4.88437 11.25 4.67812 11.0344 4.67812 10.7812V8.90625C4.67812 8.64375 4.89374 8.4375 5.14687 8.4375H7.04062C7.30312 8.4375 7.50937 8.65312 7.50937 8.90625V10.7812ZM7.50937 4.21875V6.09375C7.50937 6.35625 7.30312 6.5625 7.04062 6.5625H5.14687C4.88437 6.5625 4.67812 6.34688 4.67812 6.09375V4.21875C4.67812 3.95625 4.89374 3.75 5.14687 3.75H7.04062C7.30312 3.75 7.50937 3.96563 7.50937 4.21875Z" fill="#212121"/>
<path d="M12.1875 28.125H9.3938V23.7656C9.3938 23.5781 9.5438 23.4375 9.72192 23.4375H11.8594C12.0375 23.4375 12.1875 23.5781 12.1875 23.7656V28.125Z" fill="#212121"/>
<path d="M8.41875 23.7656V28.125H5.625V23.7656C5.625 23.5781 5.76562 23.4375 5.95312 23.4375H8.09063C8.27813 23.4375 8.41875 23.5875 8.41875 23.7656Z" fill="#212121"/>
</svg>
