<svg width="137" height="30" viewBox="0 0 137 30" fill="none" xmlns="http://www.w3.org/2000/svg">
<path d="M3.9 18.1C1.57 18.1 0.2 16.74 0.2 14.65C0.2 12.56 1.57 11.2 3.9 11.2C6.15 11.2 7.5 12.27 7.5 14.06V14.23H5.4V14.06C5.4 13.3 5.04 13 3.93 13C2.57 13 2.2 13.32 2.2 14.65C2.2 15.98 2.57 16.3 3.93 16.3C5.04 16.3 5.4 16 5.4 15.24V15.07H7.5V15.24C7.5 17.03 6.15 18.1 3.9 18.1ZM14.7053 18H12.5953L15.4853 11.3H18.1753L21.0753 18H18.9153L18.4053 16.76H15.2253L14.7053 18ZM16.3253 14.13L15.9353 15.07H17.7153L17.3253 14.13L16.8853 13H16.7553L16.3253 14.13ZM28.1566 18H26.2766V11.3H30.1866C31.9566 11.3 32.8866 12.04 32.8866 13.35C32.8866 14.41 32.3566 15.04 31.0766 15.2V15.3C31.7666 15.48 31.9866 15.81 32.2366 16.32L33.0666 18H30.8966L30.0966 16.36C29.8566 15.86 29.6566 15.72 28.9266 15.72H28.1566V18ZM28.1566 12.99V14.32H30.1666C30.7166 14.32 30.9166 14.22 30.9166 13.65C30.9166 13.12 30.7166 12.99 30.1666 12.99H28.1566ZM44.3164 18H38.3664V11.3H44.3164V12.99H40.2464V13.79H44.1664V15.47H40.2464V16.31H44.3164V18ZM53.0908 18.1C50.9808 18.1 49.7508 16.74 49.7508 14.65C49.7508 12.56 51.1908 11.2 53.6308 11.2C55.9008 11.2 57.2508 12.2 57.2508 13.86V13.93H55.1508V13.86C55.1508 13.24 54.7708 13 53.5808 13C52.1408 13 51.7508 13.32 51.7508 14.65C51.7508 15.98 52.1208 16.3 53.4808 16.3C54.8708 16.3 55.2708 16.23 55.3608 15.72H53.3008V14.34H57.2608V18H55.5108V16.57H55.4108C55.2308 17.35 54.6608 18.1 53.0908 18.1ZM64.6995 18H62.8195V11.3H64.6995V18ZM75.29 18H72.59L69.9 11.3H72.17L73.9 16.1H74.03L75.72 11.3H77.98L75.29 18ZM89.1309 18H83.1809V11.3H89.1309V12.99H85.0609V13.79H88.9809V15.47H85.0609V16.31H89.1309V18ZM96.5452 18H94.6652V11.3H98.5752C100.345 11.3 101.275 12.04 101.275 13.35C101.275 14.41 100.745 15.04 99.4652 15.2V15.3C100.155 15.48 100.375 15.81 100.625 16.32L101.455 18H99.2852L98.4852 16.36C98.2452 15.86 98.0452 15.72 97.3152 15.72H96.5452V18ZM96.5452 12.99V14.32H98.5552C99.1052 14.32 99.3052 14.22 99.3052 13.65C99.3052 13.12 99.1052 12.99 98.5552 12.99H96.5452ZM110.005 18.1C107.955 18.1 106.705 17.37 106.705 15.67V15.61H108.585V15.82C108.585 16.27 108.745 16.39 110.005 16.39C111.145 16.39 111.265 16.3 111.265 16C111.265 15.76 111.135 15.66 110.585 15.59L108.485 15.31C107.235 15.14 106.605 14.47 106.605 13.39C106.605 12.32 107.435 11.2 109.855 11.2C111.985 11.2 113.005 12.13 113.005 13.63V13.69H111.125V13.54C111.125 13.06 110.915 12.9 109.655 12.9C108.695 12.9 108.485 13.03 108.485 13.32C108.485 13.53 108.605 13.63 108.965 13.68L111.065 13.99C112.705 14.23 113.145 15.07 113.145 15.93C113.145 17.08 112.265 18.1 110.005 18.1Z" fill="#101012"/>
<rect x="118" y="8.5" width="19" height="13" rx="2" fill="#50c9f4"/>
<path d="M123.33 17.5H122.28V12.81H123.4L125.08 15.029L125.724 16.016H125.801L125.752 15.071V12.81H126.802V17.5H125.682L123.953 15.26L123.358 14.378H123.288L123.33 15.239V17.5ZM129.571 17.57C128.136 17.57 127.254 16.618 127.254 15.155C127.254 13.692 128.248 12.74 129.858 12.74C131.328 12.74 132.259 13.426 132.259 14.553V14.609H131.09V14.553C131.09 14.007 130.733 13.748 129.83 13.748C128.766 13.748 128.367 14.112 128.367 15.155C128.367 16.198 128.752 16.562 129.781 16.562C130.859 16.562 131.188 16.394 131.216 15.799H129.627V15.022H132.266V17.5H131.293V16.492H131.237C131.076 17.108 130.586 17.57 129.571 17.57Z" fill="#171717"/>
</svg>
