<svg width="38" height="37" viewBox="0 0 38 37" fill="none" xmlns="http://www.w3.org/2000/svg">
<g clip-path="url(#clip0_1019_1852)">
<path d="M31.3333 9.25016H25.1666V6.16683C25.1666 4.471 23.7791 3.0835 22.0833 3.0835H15.9166C14.2208 3.0835 12.8333 4.471 12.8333 6.16683V9.25016H6.66659C4.97075 9.25016 3.58325 10.6377 3.58325 12.3335V30.8335C3.58325 32.5293 4.97075 33.9168 6.66659 33.9168H31.3333C33.0291 33.9168 34.4166 32.5293 34.4166 30.8335V12.3335C34.4166 10.6377 33.0291 9.25016 31.3333 9.25016ZM15.9166 6.16683H22.0833V9.25016H15.9166V6.16683ZM31.3333 30.8335H6.66659V12.3335H31.3333V30.8335Z" fill="#03A9F5"/>
<path d="M20.5416 15.417H17.4583V20.042H12.8333V23.1253H17.4583V27.7503H20.5416V23.1253H25.1666V20.042H20.5416V15.417Z" fill="#03A9F5"/>
</g>
<defs>
<clipPath id="clip0_1019_1852">
<rect width="37" height="37" fill="white" transform="translate(0.5)"/>
</clipPath>
</defs>
</svg>
