<svg width="64" height="32" viewBox="0 0 64 32" fill="none" xmlns="http://www.w3.org/2000/svg">
<path d="M27.5 12.25H36.5M27.5 15.25H32M22.25 16.76C22.25 18.36 23.373 19.754 24.957 19.987C26.086 20.153 27.227 20.28 28.38 20.366C28.73 20.392 29.05 20.576 29.245 20.867L32 25L34.755 20.867C34.8516 20.7233 34.9798 20.6034 35.1297 20.5166C35.2795 20.4298 35.4472 20.3783 35.62 20.366C36.7652 20.2805 37.9069 20.1541 39.043 19.987C40.627 19.754 41.75 18.361 41.75 16.759V10.741C41.75 9.139 40.627 7.746 39.043 7.513C36.711 7.17071 34.357 6.99926 32 7C29.608 7 27.256 7.175 24.957 7.513C23.373 7.746 22.25 9.14 22.25 10.741V16.759V16.76Z" stroke="black" stroke-width="1.5" stroke-linecap="round" stroke-linejoin="round"/>
<rect x="32" y="2" width="16" height="16" rx="8" fill="#B3261E"/>
<path d="M38.9849 9.50439H39.7583C40.0591 9.50439 40.3079 9.45247 40.5049 9.34863C40.7054 9.24479 40.854 9.10156 40.9507 8.91895C41.0474 8.73633 41.0957 8.52686 41.0957 8.29053C41.0957 8.04346 41.0509 7.83219 40.9614 7.65674C40.8755 7.4777 40.743 7.33984 40.564 7.24316C40.3885 7.14648 40.1647 7.09814 39.8926 7.09814C39.6634 7.09814 39.4557 7.14469 39.2695 7.23779C39.0869 7.32731 38.9419 7.45622 38.8345 7.62451C38.7271 7.78923 38.6733 7.98617 38.6733 8.21533H37.3735C37.3735 7.79997 37.4827 7.43115 37.7012 7.10889C37.9196 6.78662 38.2168 6.53418 38.5928 6.35156C38.9723 6.16536 39.3984 6.07227 39.8711 6.07227C40.376 6.07227 40.8164 6.15641 41.1924 6.32471C41.5719 6.48942 41.8674 6.73649 42.0786 7.06592C42.2899 7.39535 42.3955 7.80355 42.3955 8.29053C42.3955 8.51253 42.3436 8.73812 42.2397 8.96729C42.1359 9.19645 41.9819 9.40592 41.7778 9.5957C41.5737 9.7819 41.3195 9.93408 41.0151 10.0522C40.7108 10.1668 40.3581 10.2241 39.957 10.2241H38.9849V9.50439ZM38.9849 10.5142V9.80518H39.957C40.4154 9.80518 40.8057 9.85889 41.1279 9.96631C41.4538 10.0737 41.7188 10.2223 41.9229 10.4121C42.127 10.5983 42.2756 10.8114 42.3687 11.0513C42.4653 11.2912 42.5137 11.5454 42.5137 11.814C42.5137 12.1792 42.4474 12.505 42.3149 12.7915C42.186 13.0744 42.0016 13.3143 41.7617 13.5112C41.5218 13.7082 41.2407 13.8568 40.9185 13.957C40.5998 14.0573 40.2524 14.1074 39.8765 14.1074C39.5399 14.1074 39.2176 14.0609 38.9097 13.9678C38.6017 13.8747 38.326 13.7368 38.0825 13.5542C37.839 13.368 37.6457 13.137 37.5024 12.8613C37.3628 12.582 37.293 12.2598 37.293 11.8945H38.5874C38.5874 12.1273 38.6411 12.3332 38.7485 12.5122C38.8595 12.6877 39.0135 12.8255 39.2104 12.9258C39.411 13.026 39.6401 13.0762 39.8979 13.0762C40.1701 13.0762 40.4046 13.0278 40.6016 12.9312C40.7985 12.8345 40.9489 12.6912 41.0527 12.5015C41.1602 12.3117 41.2139 12.0825 41.2139 11.814C41.2139 11.5096 41.1548 11.2625 41.0366 11.0728C40.9185 10.883 40.7502 10.7433 40.5317 10.6538C40.3133 10.5607 40.0555 10.5142 39.7583 10.5142H38.9849Z" fill="white"/>
</svg>
