<svg width="24" height="17" viewBox="0 0 24 17" fill="none" xmlns="http://www.w3.org/2000/svg">
<mask id="path-1-inside-1_938_1378" fill="white">
<path d="M18.1811 6.85952L18.1702 13.7772C17.8242 14.0334 17.5918 14.4995 17.5918 15.0341C17.5918 15.8438 18.1229 16.5 18.7785 16.5C19.4336 16.5 19.965 15.8438 19.965 15.0341C19.965 14.4995 19.7323 14.0331 19.3863 13.7772V6.79639L18.1811 6.85952ZM18.1699 10.3363V6.79639V10.3363Z"/>
</mask>
<path d="M18.1811 6.85952L18.1702 13.7772C17.8242 14.0334 17.5918 14.4995 17.5918 15.0341C17.5918 15.8438 18.1229 16.5 18.7785 16.5C19.4336 16.5 19.965 15.8438 19.965 15.0341C19.965 14.4995 19.7323 14.0331 19.3863 13.7772V6.79639L18.1811 6.85952ZM18.1699 10.3363V6.79639V10.3363Z" fill="#F5F5F5"/>
<path d="M18.1811 6.85952L17.9676 2.78451L14.1066 2.98677L14.1005 6.85311L18.1811 6.85952ZM18.1702 13.7772L20.5986 17.0565L22.2476 15.8354L22.2508 13.7836L18.1702 13.7772ZM19.3863 13.7772H15.3057V15.8346L16.96 17.058L19.3863 13.7772ZM19.3863 6.79639H23.4669V2.49643L19.1729 2.72137L19.3863 6.79639ZM14.1005 6.85311L14.0896 13.7707L22.2508 13.7836L22.2617 6.86593L14.1005 6.85311ZM15.7418 10.4978C14.2285 11.6185 13.5112 13.3745 13.5112 15.0341H21.6724C21.6724 15.6246 21.4199 16.4483 20.5986 17.0565L15.7418 10.4978ZM13.5112 15.0341C13.5112 17.2497 15.1061 20.5806 18.7785 20.5806V12.4194C19.8922 12.4194 20.6936 12.9876 21.1109 13.5032C21.5216 14.0105 21.6724 14.5654 21.6724 15.0341H13.5112ZM18.7785 20.5806C22.4505 20.5806 24.0456 17.2497 24.0456 15.0341H15.8844C15.8844 14.5649 16.0354 14.0102 16.4458 13.5032C16.8626 12.9883 17.6638 12.4194 18.7785 12.4194V20.5806ZM24.0456 15.0341C24.0456 13.3744 23.3279 11.6169 21.8127 10.4963L16.96 17.058C16.1368 16.4492 15.8844 15.6246 15.8844 15.0341H24.0456ZM23.4669 13.7772V6.79639H15.3057V13.7772H23.4669ZM19.1729 2.72137L17.9676 2.78451L18.3946 10.9345L19.5998 10.8714L19.1729 2.72137ZM22.2505 10.3363V6.79639H14.0893V10.3363H22.2505ZM14.0893 6.79639V10.3363H22.2505V6.79639H14.0893Z" fill="#F5F5F5" mask="url(#path-1-inside-1_938_1378)"/>
<path d="M18.7612 14.5158C18.9881 14.5158 19.1723 14.7434 19.1723 15.0237C19.1723 15.304 18.9881 15.5316 18.7612 15.5316C18.5343 15.5316 18.3501 15.304 18.3501 15.0237C18.3501 14.7434 18.5343 14.5158 18.7612 14.5158Z" fill="#0075FF" stroke="#F5F5F5" stroke-width="4.57843"/>
<mask id="path-4-inside-2_938_1378" fill="white">
<path d="M2.99359 6.85952L2.98272 13.7772C2.6367 14.0334 2.4043 14.4995 2.4043 15.0341C2.4043 15.8438 2.93542 16.5 3.59104 16.5C4.24612 16.5 4.77752 15.8438 4.77752 15.0341C4.77752 14.4995 4.54484 14.0331 4.19882 13.7772V6.79639L2.99359 6.85952ZM2.98245 10.3363V6.79639V10.3363Z"/>
</mask>
<path d="M2.99359 6.85952L2.98272 13.7772C2.6367 14.0334 2.4043 14.4995 2.4043 15.0341C2.4043 15.8438 2.93542 16.5 3.59104 16.5C4.24612 16.5 4.77752 15.8438 4.77752 15.0341C4.77752 14.4995 4.54484 14.0331 4.19882 13.7772V6.79639L2.99359 6.85952ZM2.98245 10.3363V6.79639V10.3363Z" fill="#F5F5F5"/>
<path d="M2.99359 6.85952L2.78013 2.78451L-1.08093 2.98677L-1.087 6.85311L2.99359 6.85952ZM2.98272 13.7772L5.41113 17.0565L7.06009 15.8354L7.06331 13.7836L2.98272 13.7772ZM4.19882 13.7772H0.118222V15.8346L1.77248 17.058L4.19882 13.7772ZM4.19882 6.79639H8.27942V2.49643L3.98536 2.72137L4.19882 6.79639ZM-1.087 6.85311L-1.09787 13.7707L7.06331 13.7836L7.07419 6.86593L-1.087 6.85311ZM0.554314 10.4978C-0.95902 11.6185 -1.6763 13.3745 -1.6763 15.0341H6.4849C6.4849 15.6246 6.23242 16.4483 5.41113 17.0565L0.554314 10.4978ZM-1.6763 15.0341C-1.6763 17.2497 -0.081433 20.5806 3.59104 20.5806V12.4194C4.7047 12.4194 5.50605 12.9876 5.92343 13.5032C6.33414 14.0105 6.4849 14.5654 6.4849 15.0341H-1.6763ZM3.59104 20.5806C7.26297 20.5806 8.85812 17.2497 8.85812 15.0341H0.696918C0.696918 14.5649 0.847908 14.0102 1.25831 13.5032C1.6751 12.9883 2.47629 12.4194 3.59104 12.4194V20.5806ZM8.85812 15.0341C8.85812 13.3744 8.1404 11.6169 6.62517 10.4963L1.77248 17.058C0.949288 16.4492 0.696918 15.6246 0.696918 15.0341H8.85812ZM8.27942 13.7772V6.79639H0.118222V13.7772H8.27942ZM3.98536 2.72137L2.78013 2.78451L3.20706 10.9345L4.41229 10.8714L3.98536 2.72137ZM7.06305 10.3363V6.79639H-1.09815V10.3363H7.06305ZM-1.09815 6.79639V10.3363H7.06305V6.79639H-1.09815Z" fill="#F5F5F5" mask="url(#path-4-inside-2_938_1378)"/>
<path d="M3.55706 14.6123C3.76843 14.6123 3.94005 14.8244 3.94005 15.0855C3.94005 15.3467 3.76843 15.5587 3.55706 15.5587C3.34569 15.5587 3.17407 15.3467 3.17407 15.0855C3.17407 14.8244 3.34569 14.6123 3.55706 14.6123Z" fill="#0075FF" stroke="#F5F5F5" stroke-width="4.0806"/>
<mask id="path-7-inside-3_938_1378" fill="white">
<path d="M18.328 10.6758V11.6085H4.07324V10.6758H18.328Z"/>
</mask>
<path d="M18.328 10.6758V11.6085H4.07324V10.6758H18.328Z" fill="#F5F5F5"/>
<path d="M18.328 10.6758H19.2617V9.74209H18.328V10.6758ZM18.328 11.6085V12.5422H19.2617V11.6085H18.328ZM4.07324 11.6085H3.13955V12.5422H4.07324V11.6085ZM4.07324 10.6758V9.74209H3.13955V10.6758H4.07324ZM17.3943 10.6758V11.6085H19.2617V10.6758H17.3943ZM18.328 10.6748H4.07324V12.5422H18.328V10.6748ZM5.00693 11.6085V10.6758H3.13955V11.6085H5.00693ZM4.07324 11.6095H18.328V9.74209H4.07324V11.6095Z" fill="#F5F5F5" mask="url(#path-7-inside-3_938_1378)"/>
<mask id="path-9-inside-4_938_1378" fill="white">
<path d="M23.6091 1.02592C23.1956 0.670616 22.6273 0.79655 22.3394 1.30734L20.4242 4.70722H0.912212C0.408266 4.70722 0 5.21163 0 5.83391C0 6.45652 0.408266 6.96093 0.912212 6.96093H3.43004H19.3864H21.3769L23.8366 2.59455C24.1242 2.08376 24.0222 1.38155 23.6091 1.02592ZM4.64587 6.96093H18.17H4.64587Z"/>
</mask>
<path d="M23.6091 1.02592C23.1956 0.670616 22.6273 0.79655 22.3394 1.30734L20.4242 4.70722H0.912212C0.408266 4.70722 0 5.21163 0 5.83391C0 6.45652 0.408266 6.96093 0.912212 6.96093H3.43004H19.3864H21.3769L23.8366 2.59455C24.1242 2.08376 24.0222 1.38155 23.6091 1.02592ZM4.64587 6.96093H18.17H4.64587Z" fill="#F5F5F5"/>
<path d="M23.6091 1.02592L26.2712 -2.06675L26.2687 -2.06885L23.6091 1.02592ZM22.3394 1.30734L18.7845 -0.696044L18.7841 -0.69543L22.3394 1.30734ZM20.4242 4.70722V8.78782H22.809L23.9795 6.70999L20.4242 4.70722ZM21.3769 6.96093V11.0415H23.7618L24.9322 8.9637L21.3769 6.96093ZM23.8366 2.59455L27.3919 4.59732L27.3924 4.5965L23.8366 2.59455ZM26.2687 -2.06885C25.1279 -3.04929 23.5805 -3.48258 22.0442 -3.14209C20.547 -2.81027 19.4253 -1.83314 18.7845 -0.696044L25.8944 3.31072C25.5414 3.93703 24.8478 4.5958 23.8101 4.82577C22.7333 5.06443 21.6768 4.74582 20.9494 4.12069L26.2687 -2.06885ZM18.7841 -0.69543L16.8689 2.70445L23.9795 6.70999L25.8947 3.31011L18.7841 -0.69543ZM20.4242 0.626618H0.912212V8.78782H20.4242V0.626618ZM0.912212 0.626618C-2.60843 0.626618 -4.0806 3.80553 -4.0806 5.83391H4.0806C4.0806 6.39646 3.89905 7.03614 3.43869 7.60479C2.97167 8.18167 2.10172 8.78782 0.912212 8.78782V0.626618ZM-4.0806 5.83391C-4.0806 7.86177 -2.60912 11.0415 0.912212 11.0415V2.88033C2.1018 2.88033 2.97186 3.48656 3.43895 4.06363C3.89934 4.63245 4.0806 5.272 4.0806 5.83391H-4.0806ZM0.912212 11.0415H3.43004V2.88033H0.912212V11.0415ZM3.43004 11.0415H19.3864V2.88033H3.43004V11.0415ZM19.3864 11.0415H21.3769V2.88033H19.3864V11.0415ZM24.9322 8.9637L27.3919 4.59732L20.2813 0.591784L17.8216 4.95817L24.9322 8.9637ZM27.3924 4.5965C28.5299 2.57601 28.3127 -0.309419 26.2712 -2.06675L20.947 4.11858C20.2792 3.54373 20.0211 2.84661 19.9473 2.33791C19.872 1.81916 19.9398 1.19824 20.2808 0.592605L27.3924 4.5965ZM4.64587 11.0415H18.17V2.88033H4.64587V11.0415ZM18.17 2.88033H4.64587V11.0415H18.17V2.88033Z" fill="#F5F5F5" mask="url(#path-9-inside-4_938_1378)"/>
<mask id="path-11-inside-5_938_1378" fill="white">
<path d="M20.3265 4.61318C20.3265 4.84032 20.1773 5.02473 19.9934 5.02473H1.47544C1.2916 5.02473 1.14233 4.84032 1.14233 4.61318C1.14233 4.38605 1.2916 4.20163 1.47544 4.20163H19.9934C20.1773 4.20163 20.3265 4.38605 20.3265 4.61318Z"/>
</mask>
<path d="M20.3265 4.61318C20.3265 4.84032 20.1773 5.02473 19.9934 5.02473H1.47544C1.2916 5.02473 1.14233 4.84032 1.14233 4.61318C1.14233 4.38605 1.2916 4.20163 1.47544 4.20163H19.9934C20.1773 4.20163 20.3265 4.38605 20.3265 4.61318Z" fill="#F5F5F5"/>
<path d="M16.2459 4.61318C16.2459 3.85163 16.4931 3.03372 17.0571 2.33688C17.6272 1.63254 18.6414 0.944134 19.9934 0.944134V9.10533C23.1947 9.10533 24.4071 6.24554 24.4071 4.61318H16.2459ZM19.9934 0.944134H1.47544V9.10533H19.9934V0.944134ZM1.47544 0.944134C2.82748 0.944134 3.84169 1.63254 4.41177 2.33687C4.97579 3.03371 5.22293 3.85162 5.22293 4.61318H-2.93827C-2.93827 6.24555 -1.72579 9.10533 1.47544 9.10533V0.944134ZM5.22293 4.61318C5.22293 5.37474 4.97579 6.19265 4.41177 6.88949C3.84169 7.59382 2.82748 8.28223 1.47544 8.28223V0.12103C-1.72579 0.12103 -2.93827 2.98081 -2.93827 4.61318H5.22293ZM1.47544 8.28223H19.9934V0.12103H1.47544V8.28223ZM19.9934 8.28223C18.6414 8.28223 17.6272 7.59382 17.0571 6.88949C16.4931 6.19264 16.2459 5.37473 16.2459 4.61318H24.4071C24.4071 2.98083 23.1947 0.12103 19.9934 0.12103V8.28223Z" fill="#F5F5F5" mask="url(#path-11-inside-5_938_1378)"/>
<path d="M21.9466 2.95572C21.765 2.93244 21.5699 2.8598 21.3666 2.72061C21.1634 2.58141 21.0101 2.41549 20.8979 2.23756L20.9715 2.07352C21.1531 2.09681 21.3482 2.16944 21.5515 2.30864C21.7547 2.44783 21.908 2.61375 22.0202 2.79168L21.9466 2.95572Z" fill="#F5F5F5" stroke="#F5F5F5" stroke-width="4.0806"/>
</svg>
