<svg width="48" height="48" viewBox="0 0 48 48" fill="none" xmlns="http://www.w3.org/2000/svg">
<g opacity="0.5">
<path d="M39.2273 12.9829C38.8935 12.8697 38.5841 12.9249 38.3639 13H9.50556C9.40044 12.9714 9.27974 12.9504 9.14814 12.9495C9.00314 12.9485 8.726 12.9772 8.47162 13.1895C8.17304 13.4388 8.04216 13.836 8.13576 14.2146C8.28202 14.8062 8.7932 14.9713 9.07648 14.9964L9.09638 15.0098C9.18692 15.0714 9.29852 15.1551 9.43564 15.2644C9.6693 15.4508 9.94054 15.6821 10.2658 15.9594L10.4571 16.1224C11.2676 16.8123 12.3233 17.6972 13.6011 18.5648C15.9584 20.1654 19.1113 21.7354 22.9999 21.97V22C22.9999 22.5522 23.4475 23 23.9999 23C24.5521 23 24.9999 22.5522 24.9999 22V21.9692C28.7875 21.7348 31.8909 20.2026 34.2335 18.6243C35.5065 17.7666 36.5669 16.887 37.3911 16.1884L37.6749 15.9474C37.9681 15.6981 38.2195 15.4843 38.4421 15.3044C38.6133 15.1661 38.7437 15.0677 38.8411 15H38.8809C39.2677 15 39.6909 14.7775 39.8629 14.3294C39.9523 14.0968 39.9695 13.7918 39.8225 13.499C39.6753 13.2057 39.4281 13.051 39.2273 12.9829Z" fill="#9747FF"/>
<path d="M25 27C25 26.4478 24.5522 26 24 26C23.4476 26 23 26.4478 23 27V32C23 32.5522 23.4476 33 24 33C24.5522 33 25 32.5522 25 32V27Z" fill="#9747FF"/>
<path d="M24.9998 37C24.9998 36.4478 24.552 36 23.9998 36C23.4474 36 22.9998 36.4478 22.9998 37V40H15.9998C15.4475 40 14.9998 40.4478 14.9998 41C14.9998 41.5522 15.4475 42 15.9998 42H31.9998C32.552 42 32.9998 41.5522 32.9998 41C32.9998 40.4478 32.552 40 31.9998 40H24.9998V37Z" fill="#9747FF"/>
</g>
<path fill-rule="evenodd" clip-rule="evenodd" d="M24.1526 8.59352C27.0944 6.94616 30.506 8.51148 32.142 11.2444C32.4256 11.7183 33.0398 11.8725 33.5136 11.5888C33.9874 11.3052 34.1416 10.6911 33.858 10.2172C31.8236 6.81842 27.1444 4.39732 22.9162 6.99994H21.2884C20.6858 6.99994 20.1508 7.38554 19.9601 7.95722L19.1146 10.494C18.8279 11.3539 19.646 12.172 20.506 11.8854L23.0718 11.0301C23.5928 10.8564 23.9642 10.394 24.0214 9.84764L24.1526 8.59352ZM22.0992 8.99994H21.7208L21.5812 9.4188L22.0724 9.25502L22.0992 8.99994ZM32.4588 21.596C32.8484 21.9876 32.8466 22.6208 32.455 23.0104C31.9898 23.473 31.3728 23.8088 30.7286 24.0672C30.075 24.3294 29.3276 24.5374 28.5464 24.7116C27.191 25.0138 25.6404 25.2334 24.1682 25.442C23.9516 25.4726 23.7368 25.503 23.5244 25.5334C21.8294 25.7764 20.3176 26.0162 19.2338 26.3588C18.6889 26.531 18.337 26.7042 18.1387 26.8582C18.0457 26.9304 18.0121 26.979 18.0026 26.9954C18.0014 26.9974 18.0006 26.999 18 27.0002C18.0002 27.0288 18.0449 27.3144 18.5982 27.6854C19.1229 28.037 19.9905 28.3728 21.241 28.5056C21.7902 28.564 22.188 29.0564 22.1298 29.6056C22.0714 30.1548 21.5788 30.5528 21.0296 30.4944C19.5435 30.3366 18.3435 29.9224 17.4846 29.3466C16.6558 28.791 16 27.9724 16 27C16 26.232 16.4175 25.6626 16.9118 25.2786C17.3857 24.9106 18.0001 24.651 18.6312 24.4516C19.8995 24.0508 21.579 23.7918 23.2408 23.5538C23.4584 23.5224 23.6764 23.4916 23.894 23.4608C25.3758 23.2506 26.839 23.0432 28.1112 22.7594C28.8368 22.5976 29.4692 22.4174 29.984 22.211C30.5082 22.0008 30.8482 21.7876 31.0446 21.5922C31.4362 21.2028 32.0694 21.2046 32.4588 21.596ZM25.7084 29.9418C25.8342 29.404 26.3722 29.0702 26.9098 29.196C27.6426 29.3676 28.3752 29.6164 28.943 30.0268C29.5524 30.4674 30 31.1222 30 32C30 33.3838 28.9198 34.1306 27.978 34.5414C27.0058 34.9658 25.7398 35.2346 24.581 35.4784L24.4944 35.4968C23.3124 35.7454 22.2138 35.9766 21.3404 36.3094C20.405 36.6658 20.0464 37.0228 19.9487 37.3162C19.774 37.84 19.2077 38.1232 18.6838 37.9486C18.1598 37.774 17.8767 37.2076 18.0513 36.6836C18.4535 35.477 19.595 34.8342 20.6284 34.4404C21.6528 34.0502 22.889 33.7904 24.0076 33.5554C24.0616 33.544 24.1154 33.5326 24.169 33.5214C25.3852 33.2654 26.4316 33.0342 27.1782 32.7084C27.9552 32.3694 28 32.116 28 32C28 31.8954 27.9768 31.7964 27.7714 31.6478C27.5242 31.4692 27.0978 31.294 26.4542 31.1434C25.9164 31.0176 25.5824 30.4796 25.7084 29.9418Z" fill="#9747FF"/>
</svg>
