<svg width="38" height="38" viewBox="0 0 38 38" fill="none" xmlns="http://www.w3.org/2000/svg">
<path d="M30.125 21.7251V9.31065C30.125 7.60366 28.7375 6.20703 27.0417 6.20703H5.45833C3.7625 6.20703 2.375 7.60366 2.375 9.31065V21.7251C2.375 23.4321 3.7625 24.8287 5.45833 24.8287H27.0417C28.7375 24.8287 30.125 23.4321 30.125 21.7251ZM27.0417 21.7251H5.45833V9.31065H27.0417V21.7251ZM16.25 10.8625C13.6908 10.8625 11.625 12.9419 11.625 15.5179C11.625 18.0939 13.6908 20.1733 16.25 20.1733C18.8092 20.1733 20.875 18.0939 20.875 15.5179C20.875 12.9419 18.8092 10.8625 16.25 10.8625ZM36.2917 10.8625V27.9324C36.2917 29.6393 34.9042 31.036 33.2083 31.036H7C7 29.4842 7 29.6393 7 27.9324H33.2083V10.8625C34.9042 10.8625 34.75 10.8625 36.2917 10.8625Z" fill="#FED600"/>
</svg>
