<svg width="23" height="26" viewBox="0 0 23 26" fill="none" xmlns="http://www.w3.org/2000/svg">
<path fill-rule="evenodd" clip-rule="evenodd" d="M10.6629 19.317C9.59363 18.1462 7.95337 16.5012 7.04912 16.7234C3.67156 17.5534 0.25 19.2458 0.25 21.7919V25.8752H22.75V21.7919C22.75 19.2458 19.3284 17.5534 15.9509 16.7234C15.0782 16.509 13.4336 18.1657 12.3525 19.3293C12.2068 19.4861 12.0714 19.634 11.9494 19.7672C11.7649 19.9685 11.6114 20.1362 11.5 20.25C11.4228 20.1657 11.3244 20.0551 11.2089 19.9252C11.0545 19.7514 10.8693 19.543 10.6629 19.317ZM15.7856 17.9704C15.7297 17.9935 15.6439 18.0359 15.5269 18.1088C15.2153 18.3031 14.8339 18.6176 14.4184 19.0088C13.8391 19.5542 13.3416 20.0984 12.9353 20.5428C12.7314 20.7658 12.5505 20.9637 12.3938 21.124L11.4705 22.0681L10.5784 21.0945C10.4856 20.9933 10.375 20.8689 10.2495 20.7277C9.82831 20.254 9.24019 19.5926 8.60269 18.9924C8.19119 18.6049 7.81231 18.2954 7.50194 18.1055C7.36475 18.0217 7.27719 17.9833 7.23156 17.9661C5.65963 18.362 4.15887 18.9381 3.07263 19.6567C1.93289 20.4105 1.5 21.1411 1.5 21.7919V24.6252H21.5V21.7919C21.5 21.1411 21.0671 20.4105 19.9274 19.6567C18.8451 18.9407 17.3514 18.3663 15.7856 17.9704Z" fill="#333333"/>
<path d="M15.25 20.875H19V22.125H15.25V20.875Z" fill="#333333"/>
<path d="M16.5 23.375V19.625H17.75V23.375H16.5Z" fill="#333333"/>
<path fill-rule="evenodd" clip-rule="evenodd" d="M11.5001 2.125C10.1005 2.125 8.35706 2.58654 7.20956 2.9504C6.92225 3.04151 6.75356 3.36102 6.86787 3.68488L8.13275 7.26875C10.3747 6.55625 12.6256 6.55625 14.8675 7.26875L16.1324 3.68488C16.2467 3.36102 16.0781 3.04151 15.7907 2.9504C14.6432 2.58654 12.8997 2.125 11.5001 2.125ZM6.83175 1.75887C7.99412 1.39027 9.8945 0.875 11.5001 0.875C13.1057 0.875 15.0061 1.39027 16.1686 1.75887C17.1687 2.07601 17.6464 3.1511 17.3111 4.1009L15.8395 8.2705C15.7836 8.42881 15.6664 8.558 15.5143 8.62894C15.3622 8.69987 15.1879 8.70662 15.0307 8.64769C12.6722 7.76325 10.3281 7.76325 7.96962 8.64769C7.81243 8.70662 7.63812 8.69987 7.486 8.62894C7.33387 8.558 7.21662 8.42881 7.16075 8.2705L5.68912 4.1009C5.35393 3.15109 5.83162 2.07601 6.83175 1.75887Z" fill="#333333"/>
<path d="M9.625 4H13.375V5.25H9.625V4Z" fill="#333333"/>
<path d="M10.875 6.5V2.75H12.125V6.5H10.875Z" fill="#333333"/>
<path fill-rule="evenodd" clip-rule="evenodd" d="M8.21856 7.98136C7.53756 8.75299 7.125 9.76505 7.125 10.875C7.125 13.2913 9.08375 15.25 11.5 15.25C13.9163 15.25 15.875 13.2913 15.875 10.875C15.875 9.76505 15.4624 8.75299 14.7814 7.98136L15.7186 7.15417C16.5934 8.14542 17.125 9.44892 17.125 10.875C17.125 13.9817 14.6066 16.5 11.5 16.5C8.39337 16.5 5.875 13.9817 5.875 10.875C5.875 9.44892 6.40656 8.14542 7.28144 7.15417L8.21856 7.98136Z" fill="#333333"/>
</svg>
