<svg width="595" height="341" viewBox="0 0 595 341" fill="none" xmlns="http://www.w3.org/2000/svg">
<g clip-path="url(#clip0_1277_2764)">
<path d="M98.1328 155.122V59.7485C98.1328 58.3864 98.6739 57.0802 99.637 56.1171C100.6 55.154 101.906 54.613 103.268 54.613C104.63 54.613 105.937 55.154 106.9 56.1171C107.863 57.0802 108.404 58.3864 108.404 59.7485V155.122C108.404 156.484 107.863 157.79 106.9 158.753C105.937 159.716 104.63 160.257 103.268 160.257C101.906 160.257 100.6 159.716 99.637 158.753C98.6739 157.79 98.1328 156.484 98.1328 155.122Z" fill="#F0F0F0"/>
<path d="M85.8442 155.122V59.7485C85.8442 58.3864 86.3853 57.0802 87.3484 56.1171C88.3115 55.154 89.6177 54.613 90.9797 54.613C92.3417 54.613 93.648 55.154 94.6111 56.1171C95.5742 57.0802 96.1152 58.3864 96.1152 59.7485V155.122C96.1152 156.484 95.5742 157.79 94.6111 158.753C93.648 159.716 92.3417 160.257 90.9797 160.257C89.6177 160.257 88.3115 159.716 87.3484 158.753C86.3853 157.79 85.8442 156.484 85.8442 155.122Z" fill="#F0F0F0"/>
<path d="M73.5559 155.122V59.7485C73.5559 58.3864 74.097 57.0802 75.0601 56.1171C76.0232 55.154 77.3294 54.613 78.6914 54.613C80.0534 54.613 81.3596 55.154 82.3227 56.1171C83.2858 57.0802 83.8269 58.3864 83.8269 59.7485V155.122C83.8269 156.484 83.2858 157.79 82.3227 158.753C81.3596 159.716 80.0534 160.257 78.6914 160.257C77.3294 160.257 76.0232 159.716 75.0601 158.753C74.097 157.79 73.5559 156.484 73.5559 155.122Z" fill="#F0F0F0"/>
<path d="M537.514 307.452C535.446 307.454 533.393 307.098 531.447 306.399L531.146 306.291L531.285 305.627C527.798 298.584 529.017 288.934 534.405 281C539.303 273.788 546.751 268.544 553.323 263.918C554.156 263.331 555.147 263.007 556.166 262.988C557.186 262.968 558.188 263.254 559.044 263.809C559.899 264.363 560.57 265.161 560.968 266.1C561.367 267.038 561.476 268.074 561.281 269.075L558.931 281.132C557.235 289.829 555.218 298.061 549.235 303.195C545.948 305.944 541.799 307.452 537.514 307.452Z" fill="#E6E6E6"/>
<path d="M552.903 328.286C550.627 328.273 548.391 327.691 546.397 326.593C544.403 325.496 542.715 323.918 541.485 322.002L541.315 321.737L541.721 321.379C542.772 315.643 547.717 310.532 554.356 308.334C560.391 306.337 567.053 306.664 572.926 306.951C573.702 306.989 574.45 307.256 575.074 307.719C575.698 308.182 576.17 308.82 576.431 309.552C576.693 310.284 576.731 311.077 576.541 311.83C576.35 312.584 575.941 313.264 575.364 313.784L568.756 319.75C563.953 324.083 559.164 327.997 553.386 328.277C553.225 328.283 553.064 328.286 552.903 328.286Z" fill="#E6E6E6"/>
<path d="M532.394 334.663C531.419 327.396 530.415 320.036 531.1 312.691C531.708 306.168 533.654 299.796 537.617 294.573C539.711 291.814 542.271 289.443 545.182 287.565C545.938 287.077 546.634 288.303 545.881 288.789C540.836 292.064 536.955 296.85 534.794 302.464C532.381 308.74 531.993 315.582 532.409 322.249C532.661 326.28 533.194 330.286 533.731 334.286C533.774 334.466 533.748 334.655 533.659 334.816C533.569 334.977 533.422 335.099 533.247 335.157C533.158 335.181 533.066 335.187 532.975 335.175C532.885 335.163 532.797 335.133 532.718 335.087C532.639 335.041 532.569 334.98 532.514 334.907C532.458 334.834 532.418 334.751 532.394 334.663Z" fill="#F2F2F2"/>
<path d="M529.636 338.84C534.334 330.344 539.782 320.901 549.517 317.883C552.22 317.047 555.061 316.747 557.879 317C558.767 317.078 558.545 318.477 557.659 318.399C552.925 318.001 548.202 319.279 544.315 322.008C540.552 324.626 537.622 328.267 535.143 332.127C533.624 334.491 532.263 336.956 530.902 339.417C530.468 340.204 529.196 339.636 529.636 338.84Z" fill="#F2F2F2"/>
<path d="M527.523 338.716L532.266 338.824L503.668 186.052L498.925 186.946L506.393 226.577H482.334L489.802 186.946L485.059 186.052L456.7 338.824L461.204 338.716L476.114 259.591H512.613L527.523 338.716ZM477.219 253.722L481.228 232.446H507.499L511.508 253.722H477.219Z" fill="#CACACA"/>
<path d="M320.426 157.555V107.385C320.426 105.895 322.73 104.683 325.562 104.683C328.394 104.683 330.697 105.895 330.697 107.385V157.555C330.697 159.045 328.394 160.257 325.562 160.257C322.73 160.257 320.426 159.045 320.426 157.555Z" fill="#F0F0F0"/>
<path d="M308.138 157.555V107.385C308.138 105.895 310.441 104.683 313.273 104.683C316.105 104.683 318.409 105.895 318.409 107.385V157.555C318.409 159.045 316.105 160.257 313.273 160.257C310.441 160.257 308.138 159.045 308.138 157.555Z" fill="#F0F0F0"/>
<path d="M295.849 157.555V107.385C295.849 105.895 298.153 104.683 300.985 104.683C303.817 104.683 306.12 105.895 306.12 107.385V157.555C306.12 159.045 303.817 160.257 300.985 160.257C298.153 160.257 295.849 159.045 295.849 157.555Z" fill="#F0F0F0"/>
<path d="M399.23 120.66C399.207 120.508 399.152 120.362 399.069 120.232C398.986 120.102 398.877 119.991 398.748 119.906L360.032 94.3465C360.615 94.103 361.103 93.6755 361.421 93.1292C361.808 92.4546 361.913 91.6544 361.711 90.9033C361.51 90.1522 361.02 89.5113 360.347 89.1205L357.171 87.2864C356.496 86.8996 355.696 86.7954 354.945 86.9967C354.194 87.1979 353.553 87.6882 353.162 88.3605C352.951 88.73 352.824 89.1415 352.79 89.5658L324.843 71.1159C323.905 68.8428 322.482 66.8017 320.673 65.1347C318.865 63.4678 316.716 62.2151 314.374 61.464V53.3291H304.103V61.464C300.695 62.5537 297.722 64.6979 295.612 67.5873C293.502 70.4766 292.365 73.9616 292.365 77.5393V79.7402H302.635C302.635 81.4914 303.331 83.1708 304.569 84.4091C305.808 85.6474 307.487 86.343 309.238 86.343C310.989 86.343 312.669 85.6474 313.907 84.4091C315.145 83.1708 315.841 81.4914 315.841 79.7402H326.112V77.5393C326.111 76.4842 326.012 75.4316 325.815 74.395L396.516 121.069L367.147 156.776C366.919 156.775 366.692 156.773 366.462 156.773C364.119 156.773 361.849 156.828 359.685 156.923C359.816 156.561 359.873 156.176 359.853 155.791C359.81 155.014 359.462 154.286 358.884 153.766C358.307 153.246 357.547 152.975 356.77 153.013L353.107 153.204C352.33 153.247 351.602 153.595 351.082 154.173C350.561 154.75 350.291 155.511 350.329 156.287C350.356 156.746 350.492 157.192 350.726 157.587C344.249 158.276 340.051 159.224 340.051 159.707C340.051 160.498 351.322 159.745 365.43 159.709C365.494 159.892 365.607 160.055 365.755 160.181C365.903 160.307 366.083 160.391 366.274 160.424C366.466 160.458 366.663 160.44 366.845 160.372C367.028 160.305 367.189 160.19 367.312 160.039L367.584 159.709C381.65 159.748 392.873 160.497 392.873 159.707C392.873 158.963 382.894 157.111 369.965 156.814L398.992 121.523C399.09 121.404 399.162 121.266 399.202 121.117C399.243 120.968 399.253 120.813 399.23 120.66Z" fill="#CCCCCC"/>
<path d="M400.289 339.083H309.893C308.066 339.081 306.314 338.354 305.023 337.062C303.731 335.77 303.004 334.019 303.002 332.192V183.838C303.001 182.206 302.351 180.641 301.197 179.487C300.043 178.333 298.478 177.683 296.846 177.682H85.3985C83.7662 177.683 82.2013 178.333 81.0471 179.487C79.8928 180.641 79.2436 182.206 79.2417 183.838V332.192C79.2396 334.019 78.513 335.77 77.2212 337.062C75.9295 338.354 74.1781 339.081 72.3513 339.083H69.2584C67.4315 339.081 65.6801 338.354 64.3883 337.062C63.0966 335.77 62.37 334.019 62.3679 332.192V175.848C62.3728 171.471 64.1135 167.275 67.2081 164.181C70.3027 161.086 74.4985 159.345 78.8749 159.341H390.673C395.049 159.346 399.245 161.086 402.339 164.181C405.434 167.275 407.175 171.471 407.18 175.848V332.192C407.177 334.019 406.451 335.77 405.159 337.062C403.867 338.354 402.116 339.081 400.289 339.083Z" fill="#E4E4E4"/>
<path d="M406.813 197.857H303.369V202.258H406.813V197.857Z" fill="white"/>
<path d="M406.813 257.282H303.369V261.683H406.813V257.282Z" fill="white"/>
<path d="M217.741 158.616L214.768 157.364L212.728 142.46H185.569L183.358 157.303L180.698 158.633C180.571 158.697 180.469 158.802 180.409 158.93C180.349 159.059 180.334 159.205 180.366 159.343C180.399 159.482 180.477 159.605 180.589 159.693C180.701 159.782 180.839 159.83 180.981 159.83H217.496C217.642 159.83 217.783 159.779 217.896 159.687C218.009 159.595 218.086 159.466 218.115 159.323C218.144 159.18 218.123 159.032 218.054 158.903C217.986 158.774 217.875 158.673 217.741 158.616Z" fill="#E6E6E6"/>
<path d="M266.006 144.443H132.59C131.89 144.442 131.219 144.162 130.725 143.667C130.231 143.171 129.953 142.5 129.953 141.8V122.987H268.643V141.8C268.643 142.5 268.365 143.171 267.871 143.667C267.376 144.162 266.706 144.442 266.006 144.443Z" fill="#CCCCCC"/>
<path d="M268.782 131.878H129.831V51.3799C129.832 50.5351 130.168 49.7252 130.765 49.1279C131.363 48.5305 132.173 48.1945 133.017 48.1936H265.596C266.441 48.1945 267.251 48.5305 267.848 49.1279C268.445 49.7252 268.781 50.5351 268.782 51.3799V131.878Z" fill="#3F3D56"/>
<path d="M260.483 126.036H138.13C137.479 126.035 136.854 125.776 136.394 125.315C135.933 124.855 135.674 124.23 135.674 123.579V56.4926C135.674 55.8413 135.933 55.2169 136.394 54.7564C136.854 54.2958 137.479 54.0368 138.13 54.036H260.483C261.135 54.0368 261.759 54.2958 262.22 54.7564C262.68 55.2169 262.939 55.8413 262.94 56.4926V123.579C262.939 124.23 262.68 124.855 262.22 125.315C261.759 125.776 261.135 126.035 260.483 126.036Z" fill="white"/>
<path d="M397.643 61.7375C398.814 61.5689 400.007 61.6589 401.139 62.0013C402.271 62.3437 403.314 62.93 404.194 63.7191C405.075 64.5082 405.772 65.4808 406.236 66.5683C406.701 67.6559 406.921 68.8321 406.881 70.0139L433.707 80.3396L421.553 89.023L397.942 77.8864C395.961 77.6883 394.122 76.7705 392.772 75.3068C391.423 73.8431 390.657 71.9352 390.62 69.9447C390.583 67.9541 391.278 66.0192 392.572 64.5065C393.867 62.9939 395.671 62.0087 397.643 61.7375Z" fill="#9E616A"/>
<path d="M499.501 56.6687L504.039 64.9198C502.942 70.1531 500.108 74.8616 495.996 78.28C489.048 84.14 452.717 105.965 452.717 105.965L406.852 82.9395L414.876 72.2774L450.884 84.3451C464.242 71.7315 480.361 62.4127 497.958 57.1316L499.501 56.6687Z" fill="#E4E4E4"/>
<path d="M491.062 193.203C510.831 193.203 526.857 187.981 526.857 181.539C526.857 175.098 510.831 169.876 491.062 169.876C471.293 169.876 455.267 175.098 455.267 181.539C455.267 187.981 471.293 193.203 491.062 193.203Z" fill="#CACACA"/>
<path d="M410.759 328.832L401.254 326.205L406.865 288.292L420.894 292.17L410.759 328.832Z" fill="#9E616A"/>
<path d="M410.636 338.716L379.988 330.244L380.095 329.856C380.97 326.692 383.065 324.006 385.921 322.387C388.776 320.768 392.158 320.35 395.322 321.224L395.322 321.224L414.041 326.399L410.636 338.716Z" fill="#2F2E41"/>
<path d="M383.201 328.955L374.179 324.971L385.251 288.281L398.565 294.159L383.201 328.955Z" fill="#9E616A"/>
<path d="M381.64 338.716L352.552 325.871L352.714 325.503C354.04 322.501 356.505 320.148 359.566 318.962C362.626 317.776 366.033 317.855 369.035 319.181L369.036 319.181L386.802 327.026L381.64 338.716Z" fill="#2F2E41"/>
<path d="M518.919 153.023C518.919 153.023 523.701 167.838 494.364 186.573L456.58 224.222L417.321 318.133L394.014 307.684L398.585 295.482L401.652 287.294L403.222 283.105L404.904 278.615L429.856 212.01L450.817 175.311L451.425 155.397L456.58 141.36L493.984 128.088L518.919 153.023Z" fill="#2F2E41"/>
<path d="M499.845 153.757C499.845 153.757 504.626 168.571 475.289 187.306L437.505 224.956L398.246 318.867L374.939 308.417L379.51 296.215L382.578 288.028L384.147 283.839L385.829 279.348L410.782 212.743L417.8 200.456C427.058 184.245 438.308 169.257 451.288 155.839L458.168 148.727L458.901 137.723L474.909 128.821L499.845 153.757Z" fill="#2F2E41"/>
<path d="M477.242 81.2322L488.98 56.2884L509.465 53.4941C509.465 53.4941 525.46 73.8725 521.261 102.508C519.686 113.246 518.403 123.937 518.326 133.321C518.306 135.818 520.49 136.933 520.527 139.19C520.563 141.407 516.387 145.019 517.592 146.526C519.316 148.603 520.343 151.17 520.527 153.863C519.073 157.323 475.074 138.578 456.58 141.36L477.242 81.2322Z" fill="#E4E4E4"/>
<path d="M506.337 40.9363C511.566 32.1404 508.674 20.7713 499.878 15.5426C491.082 10.3139 479.713 13.2058 474.484 22.0017C469.256 30.7976 472.148 42.1667 480.943 47.3954C489.739 52.624 501.109 49.7322 506.337 40.9363Z" fill="#9E616A"/>
<path d="M502.256 24.8165C502.221 25.304 502.172 25.9497 502.115 26.6802C502.058 28.6798 502.621 30.6482 503.728 32.3145C504.765 34.0674 503.528 44.6549 503.528 44.6549C533.877 23.4994 509.897 2.2453 500.516 4.13465C500.712 1.44428 493.062 2.51008 493.062 2.51008C490.146 -2.02957 483.758 3.99644 483.758 3.99644L484.99 1.92248C480.03 3.18414 475.128 18.514 475.128 18.514C476.81 25.1276 502.452 22.1261 502.256 24.8165Z" fill="#2F2E41"/>
<path d="M384.521 91.0446C394.95 77.1722 403.195 61.7854 408.968 45.4186C409.303 44.4396 409.279 43.3737 408.901 42.4106C408.524 41.4475 407.816 40.6497 406.905 40.1593L371.217 21.0367C370.64 20.725 369.999 20.5491 369.343 20.5225C368.688 20.4959 368.035 20.6192 367.434 20.8831C366.822 21.149 366.279 21.551 365.846 22.0585C365.413 22.566 365.101 23.1656 364.935 23.8117C360.781 39.5832 352.973 54.1555 342.142 66.3496C341.696 66.8459 341.37 67.4375 341.187 68.0791C341.004 68.7208 340.97 69.3958 341.088 70.0525C341.201 70.6988 341.46 71.3108 341.845 71.8419C342.23 72.373 342.732 72.8092 343.311 73.1172L378.999 92.2399C379.912 92.7266 380.968 92.8737 381.979 92.6548C382.991 92.4359 383.891 91.8653 384.521 91.0446Z" fill="#CCCCCC"/>
<path d="M382.086 89.2145C381.894 89.4541 381.624 89.6192 381.324 89.6813C381.023 89.7434 380.71 89.6986 380.439 89.5547L344.75 70.4317C344.577 70.3414 344.427 70.2122 344.312 70.0541C344.197 69.8961 344.12 69.7136 344.088 69.5209C344.05 69.3175 344.061 69.1082 344.118 68.9095C344.175 68.7107 344.278 68.528 344.418 68.3755C355.567 55.8222 363.605 40.8206 367.881 24.5843C367.931 24.3837 368.026 24.1972 368.16 24.0396C368.293 23.8819 368.462 23.7573 368.651 23.6755C368.83 23.5955 369.025 23.5581 369.22 23.5662C369.416 23.5743 369.607 23.6276 369.779 23.7221L405.466 42.8445C405.737 42.9905 405.948 43.2265 406.062 43.5115C406.177 43.7965 406.189 44.1126 406.096 44.4053C400.425 60.4792 392.328 75.5905 382.086 89.2145Z" fill="white"/>
<path d="M369.6 41.8903L394.215 56.3182C396.665 57.7537 398.882 53.9505 396.437 52.5173L371.822 38.0894C369.373 36.6539 367.155 40.457 369.6 41.8903Z" fill="#00BFA6"/>
<path d="M365.198 49.9603L389.814 64.3882C392.263 65.8237 394.481 62.0206 392.035 60.5874L367.42 46.1594C364.971 44.7239 362.753 48.5271 365.198 49.9603Z" fill="#00BFA6"/>
<path d="M360.063 58.764L384.678 73.1919C387.127 74.6274 389.345 70.8243 386.9 69.3911L362.284 54.9631C359.835 53.5276 357.618 57.3308 360.063 58.764Z" fill="#00BFA6"/>
<path d="M354.927 66.1004L379.543 80.5283C381.992 81.9638 384.21 78.1607 381.764 76.7275L357.149 62.2995C354.7 60.864 352.482 64.6672 354.927 66.1004Z" fill="#00BFA6"/>
<path d="M467.141 150.967L476.382 171.748C476.605 172.245 476.701 172.79 476.66 173.334C476.619 173.877 476.443 174.402 476.148 174.861C475.801 175.409 475.3 175.842 474.707 176.106C474.115 176.369 473.457 176.452 472.818 176.342C472.6 176.309 472.386 176.252 472.181 176.172C471.364 175.857 470.705 175.231 470.349 174.431L461.108 153.65C460.932 153.254 460.835 152.827 460.824 152.393C460.813 151.96 460.887 151.529 461.043 151.124C461.357 150.307 461.983 149.648 462.783 149.292C463.583 148.936 464.492 148.913 465.309 149.227C466.126 149.541 466.785 150.167 467.141 150.967Z" fill="#00BFA6"/>
<path d="M475.637 170.072L477.489 174.266L478.435 180.212C478.498 180.603 478.429 181.005 478.24 181.353C478.051 181.702 477.752 181.978 477.39 182.139C477.028 182.3 476.623 182.337 476.237 182.244C475.852 182.151 475.508 181.933 475.259 181.624L471.428 176.857L469.604 172.755L475.637 170.072Z" fill="#3F3D56"/>
<path d="M459.055 145.185L460.379 153.505C460.422 153.777 460.528 154.036 460.687 154.261C460.846 154.486 461.055 154.672 461.297 154.804C461.54 154.935 461.809 155.009 462.085 155.02C462.36 155.031 462.635 154.978 462.887 154.866L464.2 154.282L466.734 159.98C466.813 160.158 466.959 160.297 467.141 160.366C467.322 160.436 467.524 160.43 467.702 160.352C467.879 160.273 468.018 160.126 468.088 159.945C468.158 159.764 468.153 159.562 468.074 159.384L465.54 153.686L466.853 153.102C467.288 152.908 467.629 152.55 467.801 152.106C467.973 151.661 467.961 151.167 467.769 150.731C467.705 150.586 467.622 150.451 467.522 150.328L462.232 143.773C461.983 143.464 461.639 143.247 461.253 143.154C460.868 143.061 460.463 143.098 460.1 143.259C459.738 143.42 459.439 143.696 459.25 144.044C459.061 144.393 458.992 144.794 459.055 145.185Z" fill="#3F3D56"/>
<path d="M462.888 160.202C463.096 159.038 463.557 157.934 464.238 156.967C464.92 156 465.804 155.195 466.831 154.607C467.857 154.019 468.999 153.664 470.178 153.566C471.356 153.467 472.542 153.628 473.651 154.038L491.894 131.825L496.311 146.093L478.31 165C477.499 166.818 476.049 168.275 474.235 169.096C472.421 169.916 470.369 170.043 468.468 169.451C466.567 168.86 464.949 167.591 463.921 165.887C462.892 164.182 462.525 162.159 462.888 160.202Z" fill="#9E616A"/>
<path d="M485.855 158.758L477.82 147.153L500.635 116.732L488.882 91.5459L489.738 61.5876L499.45 59.7934L499.571 59.8539C504.293 62.5719 507.943 66.8234 509.915 71.9023C512.338 77.9595 517.746 100.698 520.755 113.713C521.346 116.235 521.281 118.866 520.567 121.356C519.853 123.846 518.513 126.112 516.675 127.937L485.855 158.758Z" fill="#E4E4E4"/>
<path d="M259.627 102.68C259.56 103.244 259.538 103.812 259.56 104.379L218.423 134.307L207.121 129.305L197.344 145.375L216.49 156.173C218.037 157.046 219.825 157.393 221.586 157.162C223.347 156.932 224.985 156.137 226.256 154.896L267.659 114.455C269.778 114.994 272.011 114.874 274.061 114.113C276.111 113.351 277.88 111.984 279.134 110.192C280.387 108.4 281.065 106.269 281.078 104.083C281.091 101.896 280.438 99.7575 279.206 97.9511C277.974 96.1448 276.221 94.7563 274.18 93.9705C272.14 93.1847 269.908 93.0388 267.783 93.5521C265.657 94.0655 263.739 95.2137 262.282 96.8442C260.825 98.4747 259.899 100.51 259.627 102.68Z" fill="#FFB6B6"/>
<path d="M217.092 135.401L205.096 155.391C204.754 155.96 204.294 156.449 203.747 156.824C203.2 157.199 202.579 157.451 201.925 157.564C201.271 157.677 200.601 157.648 199.96 157.479C199.318 157.31 198.721 157.004 198.208 156.583L180.246 141.832C177.347 140.068 175.265 137.228 174.457 133.932C173.648 130.636 174.18 127.154 175.935 124.249C177.689 121.345 180.524 119.254 183.817 118.437C187.111 117.619 190.594 118.14 193.504 119.886L214.904 128.762C215.517 129.017 216.067 129.4 216.518 129.887C216.97 130.373 217.31 130.951 217.518 131.581C217.726 132.211 217.795 132.878 217.722 133.537C217.648 134.197 217.434 134.832 217.092 135.401Z" fill="#00BFA6"/>
<path d="M165.691 309.154H189.206V270.186H165.691V309.154Z" fill="#CACACA"/>
<path d="M188.028 290.806L185.01 295.254L241.446 333.549L244.464 329.102L188.028 290.806Z" fill="#CACACA"/>
<path d="M166.87 290.806L110.434 329.102L113.452 333.549L169.888 295.253L166.87 290.806Z" fill="#CACACA"/>
<path d="M242.955 338.716C247.037 338.716 250.345 335.407 250.345 331.325C250.345 327.244 247.037 323.935 242.955 323.935C238.873 323.935 235.564 327.244 235.564 331.325C235.564 335.407 238.873 338.716 242.955 338.716Z" fill="#CACACA"/>
<path d="M177.113 338.716C181.194 338.716 184.503 335.407 184.503 331.325C184.503 327.244 181.194 323.935 177.113 323.935C173.031 323.935 169.722 327.244 169.722 331.325C169.722 335.407 173.031 338.716 177.113 338.716Z" fill="#CACACA"/>
<path d="M111.943 338.716C116.024 338.716 119.333 335.407 119.333 331.325C119.333 327.244 116.024 323.935 111.943 323.935C107.861 323.935 104.552 327.244 104.552 331.325C104.552 335.407 107.861 338.716 111.943 338.716Z" fill="#CACACA"/>
<path d="M179.8 293.029H174.425V331.325H179.8V293.029Z" fill="#CACACA"/>
<path d="M172.41 287.655H182.488V235.922H172.41V287.655Z" fill="#CACACA"/>
<path d="M148.559 243.984V231.89C148.561 229.664 149.447 227.529 151.021 225.955C152.596 224.38 154.73 223.495 156.957 223.492H201.972C204.198 223.495 206.333 224.38 207.907 225.955C209.482 227.529 210.367 229.664 210.37 231.89V243.984C210.367 246.21 209.482 248.345 207.907 249.92C206.333 251.494 204.198 252.38 201.971 252.382H156.957C154.73 252.38 152.596 251.494 151.021 249.92C149.447 248.345 148.561 246.21 148.559 243.984Z" fill="#3F3D56"/>
<path d="M229.861 326.649L242.309 326.648L248.232 294.359L229.859 294.36L229.861 326.649Z" fill="#FFB8B8"/>
<path d="M226.686 338.716L266.827 338.714V338.207C266.827 336.155 266.423 334.123 265.638 332.228C264.852 330.332 263.702 328.61 262.251 327.159C260.8 325.708 259.078 324.557 257.182 323.772C255.287 322.987 253.255 322.583 251.203 322.583H251.202L226.685 322.584L226.686 338.716Z" fill="#2F2E41"/>
<path d="M248.481 306.626L273.299 250.971C275.371 246.281 275.6 240.982 273.941 236.129C272.281 231.277 268.855 227.228 264.344 224.789L210.512 195.922L185.947 193.833L163.288 191.773L163.124 192.05C162.915 192.403 158.043 200.818 161.336 210.045C163.835 217.044 170.332 222.511 180.649 226.294C204.73 235.124 232.548 242.67 243.39 245.505C243.869 245.627 244.317 245.85 244.704 246.158C245.091 246.466 245.408 246.852 245.635 247.292C245.863 247.726 245.998 248.203 246.032 248.692C246.067 249.181 245.999 249.672 245.835 250.134L222.777 301.936C222.537 302.593 222.45 303.297 222.524 303.993C222.598 304.689 222.831 305.358 223.205 305.95C223.578 306.541 224.083 307.039 224.68 307.405C225.276 307.77 225.949 307.994 226.646 308.059L243.874 309.313C244.021 309.327 244.166 309.334 244.311 309.334C245.193 309.334 246.057 309.078 246.797 308.597C247.537 308.117 248.122 307.432 248.481 306.626Z" fill="#2F2E41"/>
<path d="M221.737 326.649L234.186 326.648L240.109 294.359L221.736 294.36L221.737 326.649Z" fill="#FFB8B8"/>
<path d="M218.562 338.716L258.703 338.714V338.207C258.703 336.155 258.299 334.123 257.514 332.228C256.729 330.332 255.578 328.61 254.127 327.159C252.677 325.708 250.954 324.557 249.059 323.772C247.163 322.987 245.131 322.583 243.08 322.583H243.078L218.561 322.584L218.562 338.716Z" fill="#2F2E41"/>
<path d="M239.342 309.672L264.16 254.018C266.232 249.327 266.461 244.028 264.802 239.176C263.142 234.324 259.716 230.275 255.205 227.835L201.373 198.968L176.808 196.879L159.06 195.339L159.062 195.096C158.853 195.449 153.981 203.864 157.275 213.091C159.773 220.091 161.193 225.557 171.51 229.341C195.591 238.17 223.409 245.717 234.251 248.551C234.73 248.673 235.178 248.896 235.565 249.204C235.952 249.512 236.269 249.898 236.496 250.338C236.724 250.772 236.859 251.249 236.893 251.738C236.928 252.227 236.86 252.718 236.696 253.18L213.638 304.983C213.398 305.64 213.311 306.343 213.385 307.039C213.459 307.735 213.692 308.404 214.066 308.996C214.439 309.588 214.944 310.085 215.541 310.451C216.137 310.817 216.81 311.041 217.507 311.105L234.735 312.36C234.881 312.374 235.027 312.38 235.172 312.38C236.054 312.38 236.918 312.124 237.658 311.644C238.398 311.163 238.983 310.478 239.342 309.672Z" fill="#2F2E41"/>
<path d="M223.773 69.9544C226.96 56.5538 218.68 43.1071 205.28 39.9203C191.879 36.7334 178.433 45.0133 175.246 58.4138C172.059 71.8143 180.339 85.261 193.739 88.4478C207.14 91.6347 220.587 83.3549 223.773 69.9544Z" fill="#FFB8B8"/>
<path d="M285.479 160.007C295.908 146.135 304.153 130.748 309.927 114.381C310.261 113.402 310.237 112.336 309.86 111.373C309.482 110.41 308.774 109.612 307.864 109.122L272.175 89.9991C271.598 89.6874 270.957 89.5115 270.301 89.4849C269.646 89.4583 268.993 89.5816 268.392 89.8455C267.78 90.1114 267.237 90.5134 266.804 91.0209C266.371 91.5284 266.059 92.128 265.893 92.7741C261.739 108.546 253.931 123.118 243.1 135.312C242.655 135.808 242.328 136.4 242.145 137.042C241.962 137.683 241.929 138.358 242.046 139.015C242.159 139.661 242.418 140.273 242.803 140.804C243.189 141.335 243.69 141.772 244.269 142.08L279.958 161.202C280.871 161.689 281.927 161.836 282.938 161.617C283.949 161.398 284.85 160.828 285.479 160.007Z" fill="#CCCCCC"/>
<path d="M283.044 158.177C282.852 158.417 282.582 158.582 282.282 158.644C281.981 158.706 281.668 158.661 281.397 158.517L245.708 139.394C245.535 139.304 245.385 139.175 245.27 139.017C245.155 138.859 245.078 138.676 245.046 138.483C245.009 138.28 245.019 138.071 245.076 137.872C245.134 137.673 245.236 137.49 245.376 137.338C256.526 124.785 264.564 109.783 268.84 93.5467C268.889 93.3461 268.984 93.1596 269.118 93.002C269.252 92.8443 269.42 92.7197 269.61 92.6379C269.788 92.5579 269.983 92.5205 270.179 92.5286C270.374 92.5367 270.565 92.59 270.737 92.6845L306.425 111.807C306.695 111.953 306.906 112.189 307.021 112.474C307.136 112.759 307.147 113.075 307.054 113.368C301.384 129.442 293.287 144.553 283.044 158.177Z" fill="white"/>
<path d="M270.558 110.853L295.174 125.281C297.623 126.716 299.841 122.913 297.395 121.48L272.78 107.052C270.331 105.616 268.113 109.419 270.558 110.853Z" fill="#CCCCCC"/>
<path d="M266.157 118.923L290.772 133.351C293.221 134.786 295.439 130.983 292.994 129.55L268.378 115.122C265.929 113.686 263.711 117.489 266.157 118.923Z" fill="#CCCCCC"/>
<path d="M262.698 126.961L285.084 140.251C287.312 141.573 289.694 138.84 287.47 137.519L265.084 124.23C262.856 122.907 260.474 125.641 262.698 126.961Z" fill="#CCCCCC"/>
<path d="M255.886 135.063L280.501 149.491C282.95 150.926 285.168 147.123 282.723 145.69L258.107 131.262C255.658 129.826 253.44 133.63 255.886 135.063Z" fill="#CCCCCC"/>
<path d="M213.89 197.942L164.535 197.647L164.522 197.296C163.581 172.533 166.607 150.101 173.774 128.719C173.875 127.919 173.985 127.063 174.092 126.224C175.316 116.658 176.289 109.063 185.385 106.234C184.627 105.226 184.18 104.019 184.1 102.761C184.042 101.925 184.152 101.085 184.422 100.292C184.692 99.4983 185.118 98.7665 185.673 98.139C186.205 97.533 186.852 97.0388 187.577 96.6853C188.301 96.3318 189.089 96.126 189.894 96.08L207.461 95.4817C208.384 95.4755 209.283 95.7801 210.012 96.3465C211.349 97.34 212.289 98.7773 212.663 100.401C213.038 102.024 212.822 103.728 212.054 105.207C211.847 105.619 211.768 105.806 211.738 105.888C212.362 109.16 214.215 113.047 216.176 117.16C218.984 123.049 222.166 129.724 222.984 136.864C223.426 140.72 223.243 144.622 222.44 148.419C222.074 150.465 221.99 152.551 222.19 154.62C222.35 157.688 222.502 160.585 220.768 163.386C220.326 164.145 219.82 164.955 219.226 165.852L216.787 171.683L213.89 197.942Z" fill="#00BFA6"/>
<path d="M139.825 232.597V131.749C139.828 128.463 141.136 125.312 143.459 122.989C145.783 120.665 148.933 119.358 152.22 119.354H155.648C158.934 119.358 162.085 120.665 164.408 122.989C166.732 125.312 168.039 128.463 168.043 131.749V232.597C168.039 235.883 166.732 239.034 164.408 241.357C162.085 243.681 158.934 244.988 155.648 244.992H152.22C148.933 244.988 145.783 243.681 143.459 241.357C141.136 239.034 139.828 235.883 139.825 232.597Z" fill="#3F3D56"/>
<path d="M272.177 141.815C271.823 142.258 271.504 142.729 271.223 143.222L220.486 146.927L213.528 136.714L196.741 145.201L207.303 164.479C208.156 166.036 209.492 167.275 211.109 168.009C212.726 168.743 214.537 168.932 216.271 168.549L272.783 156.056C274.299 157.632 276.259 158.709 278.402 159.144C280.545 159.579 282.769 159.352 284.78 158.492C286.79 157.632 288.491 156.18 289.656 154.329C290.821 152.479 291.396 150.318 291.302 148.133C291.209 145.949 290.453 143.844 289.135 142.1C287.817 140.355 285.999 139.053 283.922 138.367C281.846 137.681 279.61 137.644 277.512 138.26C275.414 138.875 273.553 140.115 272.177 141.815Z" fill="#FFB6B6"/>
<path d="M218.779 147.154L198.038 157.8C197.448 158.103 196.799 158.275 196.137 158.305C195.474 158.335 194.813 158.221 194.198 157.972C193.583 157.723 193.029 157.345 192.574 156.862C192.118 156.38 191.772 155.805 191.559 155.177L184.09 133.167C182.558 130.145 182.286 126.64 183.332 123.418C184.378 120.196 186.657 117.519 189.671 115.973C180.477 120.693 199.626 107.288 206.934 121.526L220.425 140.361C220.811 140.9 221.076 141.516 221.202 142.168C221.329 142.819 221.313 143.489 221.157 144.134C221.001 144.779 220.708 145.382 220.297 145.903C219.887 146.425 219.369 146.851 218.779 147.154Z" fill="#00BFA6"/>
<path d="M188.243 88.4419C186.742 88.4419 185.085 87.7183 183.218 86.2524C177.723 81.9375 173.795 75.939 172.037 69.177C170.279 62.4149 170.788 55.2629 173.486 48.818C174.844 45.5747 177.383 41.1664 181.771 38.5829C184.924 36.7266 188.629 36.056 191.854 35.5731C194.646 35.1547 197.473 34.8215 200.257 34.5844C203.583 34.2999 207.424 34.1079 210.928 35.4391C213.496 36.4149 215.681 38.1379 217.794 39.8044C218.53 40.3847 219.292 40.9858 220.055 41.5418C221.903 42.9837 224.035 44.0191 226.311 44.5802C226.792 44.6798 227.245 44.8813 227.641 45.1711C228.036 45.461 228.365 45.8324 228.605 46.2603C228.85 46.6952 228.998 47.1776 229.04 47.6748C229.083 48.172 229.018 48.6726 228.85 49.1425C228.52 50.0668 228.223 50.9 228.825 51.8027C229.048 52.1207 229.345 52.3792 229.691 52.5556C230.037 52.7319 230.421 52.8208 230.81 52.8143C231.015 52.811 231.217 52.8589 231.399 52.9538C231.581 53.0486 231.736 53.1873 231.85 53.3574C231.967 53.5259 232.04 53.7204 232.063 53.9237C232.087 54.127 232.061 54.333 231.987 54.5238L231.89 54.7724C232.148 54.7965 232.397 54.8829 232.614 55.0243C232.831 55.1657 233.011 55.3578 233.138 55.5841C233.326 55.9063 233.399 56.2832 233.344 56.6523C233.289 57.0215 233.11 57.3609 232.836 57.6145C230.611 59.733 227.836 61.1853 224.827 61.8065C222.767 62.2104 220.649 62.2056 218.591 61.7922L218.26 61.7277L218.301 61.3608C209.979 58.3926 202.466 63.43 198.183 69.1888L197.565 68.7983C197.671 68.5837 197.733 68.3498 197.746 68.1107C197.76 67.8715 197.725 67.6322 197.643 67.407C197.557 67.1367 197.418 66.886 197.235 66.6694C197.052 66.4528 196.828 66.2744 196.576 66.1446C196.066 65.9341 195.505 65.8795 194.964 65.9875C194.422 66.0955 193.925 66.3613 193.535 66.7514C193.138 67.1679 192.831 67.6626 192.636 68.204C192.44 68.7453 192.359 69.3215 192.398 69.8959C192.511 71.1132 192.821 72.304 193.317 73.4215C193.518 73.956 193.726 74.5091 193.895 75.0665C194.843 78.233 194.591 81.6378 193.186 84.6296C192.537 85.9944 191.365 87.7347 189.462 88.2742C189.065 88.3862 188.655 88.4426 188.243 88.4419Z" fill="#2F2E41"/>
<path d="M593.632 340.183H1.36759C1.13635 340.182 0.914821 340.09 0.751548 339.926C0.588274 339.763 0.496582 339.541 0.496582 339.31C0.496582 339.078 0.588274 338.857 0.751548 338.693C0.914821 338.529 1.13635 338.437 1.36759 338.436H593.632C593.864 338.436 594.086 338.528 594.25 338.692C594.414 338.856 594.506 339.078 594.506 339.31C594.506 339.541 594.414 339.763 594.25 339.927C594.086 340.091 593.864 340.183 593.632 340.183Z" fill="#CACACA"/>
</g>
<defs>
<clipPath id="clip0_1277_2764">
<rect width="594.012" height="339.366" fill="white" transform="translate(0.494141 0.816864)"/>
</clipPath>
</defs>
</svg>
